<svg xmlns="http://www.w3.org/2000/svg" viewBox="0 0 18.64 17.8"><defs><style>.cls-1{fill:#fff;}</style></defs><g id="Layer_2" data-name="Layer 2"><g id="Layer_5" data-name="Layer 5"><g id="Group_37" data-name="Group 37"><g id="Group_35" data-name="Group 35"><g id="Group_34" data-name="Group 34"><g id="Group_33" data-name="Group 33"><path id="Path_72" data-name="Path 72" class="cls-1" d="M4.25,6.1V17.51A.29.29,0,0,1,4,17.8H.55a.29.29,0,0,1-.29-.29h0V6.1a.28.28,0,0,1,.28-.3H4a.29.29,0,0,1,.29.29Z"/><path id="Path_73" data-name="Path 73" class="cls-1" d="M18.64,10.92v6.59a.3.3,0,0,1-.3.29h-3.4a.29.29,0,0,1-.29-.29h0V11.38c0-1.61-.58-2.71-2-2.71a2.17,2.17,0,0,0-2,1.45,2.73,2.73,0,0,0-.13,1v6.41a.3.3,0,0,1-.3.29H6.75a.31.31,0,0,1-.3-.29h0c0-1.63,0-9.55,0-11.41a.3.3,0,0,1,.3-.3h3.39a.29.29,0,0,1,.3.29h0V7.5l0,0h0v0a4,4,0,0,1,3.6-2C16.67,5.51,18.64,7.23,18.64,10.92Z"/></g></g></g><g id="Group_36" data-name="Group 36"><path id="Path_74" data-name="Path 74" class="cls-1" d="M4.27,2.13A2.14,2.14,0,1,1,2.13,0h0A2.13,2.13,0,0,1,4.27,2.13Z"/></g></g></g></g></svg>