<svg xmlns="http://www.w3.org/2000/svg" viewBox="0 0 28.79 27.48"><defs><style>.cls-1{fill:#07f;}</style></defs><g id="Layer_2" data-name="Layer 2"><g id="Layer_5" data-name="Layer 5"><g id="Group_7" data-name="Group 7"><g id="Group_5" data-name="Group 5"><g id="Group_4" data-name="Group 4"><g id="Group_3" data-name="Group 3"><path id="Path_3" data-name="Path 3" class="cls-1" d="M6.57,9.41V27a.45.45,0,0,1-.45.45H.86A.45.45,0,0,1,.41,27h0V9.41A.45.45,0,0,1,.85,9H6.12a.45.45,0,0,1,.45.45Z"/><path id="Path_4" data-name="Path 4" class="cls-1" d="M28.79,16.86V27a.46.46,0,0,1-.46.45H23.08a.45.45,0,0,1-.45-.45h0V17.57c0-2.49-.89-4.19-3.13-4.19a3.38,3.38,0,0,0-3.16,2.25,4.46,4.46,0,0,0-.2,1.5V27a.45.45,0,0,1-.45.45H10.43A.45.45,0,0,1,10,27h0c0-2.52.06-14.75,0-17.62A.46.46,0,0,1,10.45,9h5.24a.45.45,0,0,1,.45.45h0v2.17l0,.06h0v-.06a6.11,6.11,0,0,1,5.55-3.07C25.75,8.51,28.79,11.16,28.79,16.86Z"/></g></g></g><g id="Group_6" data-name="Group 6"><path id="Path_5" data-name="Path 5" class="cls-1" d="M6.6,3.29A3.3,3.3,0,1,1,3.29,0h0A3.29,3.29,0,0,1,6.6,3.29Z"/></g></g></g></g></svg>