<svg xmlns="http://www.w3.org/2000/svg" viewBox="0 0 121.99 46.77"><defs><style>.cls-1,.cls-5{fill:#fff;}.cls-1{opacity:0.64;}.cls-2{fill:#6e2381;}.cls-2,.cls-3,.cls-4{stroke:#fff;stroke-width:0.5px;}.cls-3{fill:#3a4494;}.cls-4{fill:#614090;}</style></defs><g id="Layer_2" data-name="Layer 2"><g id="Layer_5" data-name="Layer 5"><g id="Group_44" data-name="Group 44"><g id="Group_45" data-name="Group 45"><g id="Group_42" data-name="Group 42"><rect id="Rectangle_5" data-name="Rectangle 5" class="cls-1" x="7.12" y="6.93" width="28.17" height="16.44"/><path id="Rectangle_7" data-name="Rectangle 7" class="cls-1" d="M1.33,26.27H19.91v20.1h0A18.58,18.58,0,0,1,1.33,27.79h0V26.27Z"/><path id="Rectangle_6" data-name="Rectangle 6" class="cls-1" d="M30,28h0a5.71,5.71,0,0,1,5.71,5.71v1.67A5.71,5.71,0,0,1,30,41h0a5.71,5.71,0,0,1-5.71-5.71V33.66A5.7,5.7,0,0,1,30,28Z"/></g><g id="Group_41" data-name="Group 41"><path id="Path_8" data-name="Path 8" class="cls-2" d="M41.61,8.33a3.56,3.56,0,0,0,0-.47c-.39,0-.75,0-1.11,0C37.41,8,35,6.52,34.53,3.37a.84.84,0,0,0-.46-.56A34,34,0,0,0,18.88.32,39.89,39.89,0,0,0,8,2.81a1,1,0,0,0-.51.66A5,5,0,0,1,2.37,7.82c-.63,0-1.25,0-1.92,0v16.8a3.58,3.58,0,0,0,.4,0q20,0,40.1,0c.56,0,.68-.19.68-.7Q41.6,16.15,41.61,8.33Zm-25.51,9a8.06,8.06,0,0,0,0,1.1c-.58-.35-1.05-.61-1.51-.9-1.48-.95-2.95-1.91-4.44-2.84a1.09,1.09,0,0,1-.51-.92,1.86,1.86,0,0,1,1.18-2.07c1.6-.92,3.12-2,4.68-3a4.79,4.79,0,0,1,.6-.32c0,.86,0,1.59,0,2.3,0,.18-.26.4-.45.52-1.14.71-2.3,1.4-3.55,2.15a23.43,23.43,0,0,0,2.75,1.67,1.87,1.87,0,0,1,1.28,2.26Zm7.7-7.86c-1.44,3.78-2.89,7.56-4.31,11.35a.68.68,0,0,1-.79.53c-.56,0-1.12,0-1.8,0,.28-.8.52-1.5.78-2.18,1.41-3.73,2.85-7.46,4.25-11.2a.84.84,0,0,1,1-.67c.51,0,1,0,1.69,0-.29.8-.53,1.48-.79,2.17Zm7.49,5.3-5.1,3.27c-.18.11-.38.2-.7.36,0-.84,0-1.58,0-2.31,0-.19.26-.4.45-.52,1-.63,2-1.24,3.06-1.86l.45-.3C28.26,12.71,27.12,12,26,11.33a.83.83,0,0,1-.49-.86c0-.62,0-1.24,0-2.05L28,10l3.25,2.06a1.73,1.73,0,0,1,.34,2.42,1.82,1.82,0,0,1-.31.31Z"/><path id="Path_9" data-name="Path 9" class="cls-3" d="M41,25.7c-2.17,0-4.34,0-6.5,0h-13c0,.29-.05.5-.05.72,0,6.44,0,12.87,0,19.3,0,.63.18.85.8.77.85-.11,1.7-.16,2.55-.26a16.67,16.67,0,0,0,9.24-4c4.76-4.21,6.8-9.77,7.59-15.9C41.67,25.8,41.43,25.7,41,25.7ZM30.67,40.56l-.24-.06V36.09H26.1l4.18-7.7.23.07v4.35h4.36Z"/><path id="Path_10" data-name="Path 10" class="cls-4" d="M19.91,44.21c0,.7,0,2.23,0,2.23s-2.22-.08-3.2-.24A17.8,17.8,0,0,1,9.4,43.43a18.41,18.41,0,0,1-5.85-6.61,27.88,27.88,0,0,1-3-8.92c-.08-.5-.23-1.12-.29-1.69,1.2,0,2.25,0,3.28,0,.12,0,.46.48.47.69a16.58,16.58,0,0,0,1.84,6.38,16.87,16.87,0,0,0,12.3,9.1c.08,0,.17.05.26.07.43.09,1.19,0,1.36.29A3.05,3.05,0,0,1,19.91,44.21Z"/><path id="Path_11" data-name="Path 11" class="cls-4" d="M19.91,36.19v4.3c-1.07-.19-2.13-.43-3.17-.72a14.92,14.92,0,0,1-5.6-3.3,15.58,15.58,0,0,1-3.56-4.88A14.34,14.34,0,0,1,6.29,27c0-.51,0-.75.62-.72,1,0,0,0,3.05,0,.43,0,.58.13.63.55A10.4,10.4,0,0,0,14.94,34a10.8,10.8,0,0,0,2.35,1.31C18.1,35.69,19,35.9,19.91,36.19Z"/><path id="Path_12" data-name="Path 12" class="cls-4" d="M19.91,26.21V34c-3.47-.15-7.23-3.92-7.3-7.8Z"/></g></g><g id="Group_56" data-name="Group 56"><path id="Path_78" data-name="Path 78" class="cls-5" d="M89.44,13.39Z"/><path id="Path_14" data-name="Path 14" class="cls-5" d="M118.12,39c.55,0,.61-.2.6-.65,0-2.17,0-4.35,0-6.52,0-.57-.22-.61-.66-.58s-.83-.13-.8.6c.06,1.72,0,3.44,0,5.16,0,.5-.15.66-.65.62s-3.53,0-4.15,0c-.43,0-.53-.14-.52-.53,0-1,0-2,0-3.08,0-.45-.12-.64-.55-.55s-1-.3-1,.52,0,1.72,0,2.58c0,1.26.07,1-1,1-1.48,0-2.23,0-2.31-1.5-.06-1-.29-2.12-1.39-2.54a3.07,3.07,0,0,0-3.31.62c-.27.25-.52.53-.91.91,0-1.23,0-2.28,0-3.32,0-.65-.36-.55-.72-.53s-.83-.18-.8.53c0,1.31,0,2.63,0,3.94,0,.61.27,1.41-.12,1.79s-4.17.19-4.16-.3c0-1,0-2.19.08-3.17,0-.51-.2-.64-.63-.58s-.91-.21-.88.55c0,1,0,2.06,0,3.08,0,.4-.11.55-.52.53-.74,0-2.77,0-3.51,0-.5,0-.61-.19-.59-.63,0-1,0-2,0-2.94,0-.44-.07-.67-.58-.59s-1-.17-.86.63a7.52,7.52,0,0,1,0,1.5c0,.66.3,1.56-.14,1.91s-4.51.06-5.18.12-.67-.2-.65-.7c0-1,0-1.91,0-2.87,0-.23,0-.47-.33-.49a13.59,13.59,0,0,0-3,0,2,2,0,0,0-1.73,1.73,4.64,4.64,0,0,0,0,1.78c.08.39,0,.58-.46.55s-3.82,0-4.39,0c-.41,0-.55-.1-.54-.51,0-1,0-2,0-3,0-.42,0-.7-.55-.65s-1-.16-1,.64c0,1,0,2,0,2.94,0,.43-.1.61-.54.59s-5.2,0-5.78,0-.56-.16-.55-.58c0-1,0-2,0-3,0-.43-.09-.63-.53-.63-1,0-2.1-.06-3.15,0A1.87,1.87,0,0,0,58,35.27a1.62,1.62,0,0,0,0,.22c0,.33,0,.66,0,1-.1,1.71.77,2.55,2.64,2.55m-.06-1.4c-.8-.09-1.08-.38-1.13-1.18-.07-1.13.13-1.45,1-1.64,1.48-.33,1.75-.11,1.75,1.41s0,1.58-1.6,1.4ZM81,36.27a4.79,4.79,0,0,1,0,.56.22.22,0,0,1,0,.08.66.66,0,0,1,0,.14s0,.05,0,.07a.5.5,0,0,1,0,.12l0,.09a.25.25,0,0,1,0,.07.64.64,0,0,1-.08.14l0,.05-.07,0-.08,0h0a.2.2,0,0,1-.08,0,3.39,3.39,0,0,1-1.23,0,.43.43,0,0,1-.36-.18A3.62,3.62,0,0,1,79,35.26c.46-.58,1.12-.36,1.72-.4.23,0,.26.15.26.33Zm23.26,1.4h-1.86c-.89,0-.89,0-.47-.83A4.25,4.25,0,0,1,103.5,35a1.36,1.36,0,0,1,1.88.32,1.28,1.28,0,0,1,.19.41,1.18,1.18,0,0,1,.07.2c.36,1.6.24,1.76-1.41,1.75Z"/><path id="Path_15" data-name="Path 15" class="cls-5" d="M121.67,19.31c0-.6-.24-.66-.71-.62s-.86-.14-.83.6c.06,1.31,0,2.62,0,3.93,0,1.88,0,1.86-1.91,1.86-.5,0-.59-.18-.58-.62,0-1.72,0-3.44,0-5.15,0-.72-.37-.6-.8-.62s-.74,0-.72.62c0,1.74,0,3.48,0,5.22,0,.4-.1.56-.52.55-.66,0-1.33,0-2,0-.38,0-.49-.12-.48-.5,0-1,0-2.1,0-3.15,0-.72-.49-.49-.85-.52s-.71-.07-.69.51c0,1,0,2.1,0,3.15,0,.38-.1.52-.48.5-.64,0-2.15,0-2.8,0-.48,0-.68-.1-.66-.62a6.83,6.83,0,0,0-.08-1.5,2,2,0,0,0-2-1.89,13.88,13.88,0,0,0-1.58,0c-.45,0-.64-.08-.35-.54a7.39,7.39,0,0,0,.6-1.06c.09-.21.6-.43.07-.72s-.76-.63-1.2,0A20.71,20.71,0,0,0,102,20.79a.9.9,0,0,0,.1,1.15,1,1,0,0,0,.92.47c.55,0,1.1,0,1.65,0,1.33,0,1.57.23,1.66,1.54,0,.19,0,.39,0,.58.05.41-.13.54-.52.54-1.82,0-4,0-5.86,0-.5,0-.6-.21-.59-.65,0-1,0-1.95,0-2.93,0-.33.06-.68-.44-.58s-1-.35-1,.51,0,2,0,3c0,.55-.16.66-.63.63s-2.43,0-3,0-.6-.17-.59-.62c0-1,0-2,0-3,0-.34-.1-.55-.46-.6a12.86,12.86,0,0,0-2.63-.15,1.84,1.84,0,0,0-1.79,1.38,4.66,4.66,0,0,0-.16,1c-.27,2.45.61,3.55,2.86,3.37.69-.06.83.25.52.9a.76.76,0,0,1-.82.43,10.32,10.32,0,0,1-1.35-.15c-.31-.05-.4,0-.44.36-.09.71.1,1,.89,1.12,1.91.27,3-.29,3.25-2.06.09-.53.28-.62.76-.62,2.73,0,8.39,0,13.68,0h0c4,0,8.94,0,13,0,.52,0,.74-.09.72-.69Q121.6,22.54,121.67,19.31Zm-30,5.76c-1.08,0-1.52-.25-1.6-1.08a2.87,2.87,0,0,1,.1-1.2A1.52,1.52,0,0,1,92,22.13c.14.1.1.25.1.38v1.07a1.24,1.24,0,0,1,0,.43c-.15.36.42,1-.47,1.06Z"/><path id="Path_19" data-name="Path 19" class="cls-5" d="M99.49,8.37c-.12-.78-.62-.47-1-.49s-.43.38-.38.66a28.59,28.59,0,0,1,.12,2.93c0,.57-.27.54-.64.52s-.77,0-.72-.59c.07-.83,0-1.67,0-2.5,0-.2.06-.41-.26-.49-.91-.22-1.25,0-1.25.95,0,.45,0,.91,0,1.36a2.87,2.87,0,0,1-.11.77c-.15.49-.57.54-1,.5s-.24-.45-.25-.67a17.5,17.5,0,0,1,0-2.29c.07-.7-.34-.6-.78-.63s-.71.12-.68.67c.06.79,0,1.58,0,2.36,0,.42-.06.59-.54.58-1.52,0-3,0-4.58,0-.42,0-.52-.12-.51-.52,0-1,0-2,0-3,0-.52-.18-.66-.66-.66s-1.19-.09-1.78-.07c-2,.08-3.09.1-3.23,2.27-.16,2.54.49,3.4,3,3.39h5.7c.51,0,1,0,1.54,0,1.5-.11,3,.32,4.52-.3a.32.32,0,0,1,.27,0c.93.47,1.93.2,2.89.28.37,0,.43-.13.43-.45A35,35,0,0,0,99.49,8.37ZM84.06,12c-.83,0-1.15-.35-1.23-1.16-.1-1,.19-1.49,1-1.68l.06,0c1.41-.28,1.65-.06,1.65,1.47s0,1.48-1.48,1.4Z"/><path id="Path_21" data-name="Path 21" class="cls-5" d="M122,12.65c0-.76,0-1.53,0-2.29-.06-1.58-.59-2.4-1.78-2.52a9,9,0,0,0-2.49.07.94.94,0,0,0-.88.91,7.06,7.06,0,0,0-.14,2.55c.09.53-.09.64-.58.63-1.36,0-2.72,0-4.08,0-.65,0-.89-.11-.89-.84,0-2.61-1.51-3.92-3.93-3.47-.38.07-.62.2-.52.65s.08.67.62.63c1.84-.15,2.4,1.11,2.39,2.53,0,.36-.09.51-.48.5-.81,0-1.62,0-2.43,0-.52,0-.67.16-.63.65s0,.8.65.78c2.43-.05,4.87,0,7.3,0h0c2.39,0,4.77,0,7.16,0C121.87,13.42,122,13.22,122,12.65ZM120.14,12h-.78c-1.3,0-1.3,0-1.29-1.32a2,2,0,0,1,0-.42c.09-.46-.17-1.11.69-1.15,1-.05,1.55.24,1.66,1.1a14.66,14.66,0,0,1,.07,1.48c0,.25-.13.32-.36.31Z"/><path id="Path_22" data-name="Path 22" class="cls-5" d="M75.86,26.08c0,.44-.3.35-.54.35H68c-2,0-7.32,0-9.27,0-.47,0-.61-.13-.6-.59,0-2.22,0-4.44,0-6.66,0-.6.35-.5.69-.48s.84-.19.82.52c0,1.72,0,3.44,0,5.15,0,.58.17.75.72.7s4.35-.05,4.83,0,.64-.17.63-.65c0-1,0-2,0-3,0-.48.17-.57.52-.5s.93-.33.92.48c0,1,0,2.05,0,3.08,0,.49.17.6.62.6,1.55,0,4.45,0,6,0,.43,0,.6-.12.56-.57s0-1,0-1.5-.33-1-1-.9-1.19,0-1.79,0c-.27,0-.49,0-.45-.38s-.13-.56.31-.67a8.79,8.79,0,0,1,3.19-.2,1.27,1.27,0,0,1,1.16,1.26C75.82,23.46,75.83,24.77,75.86,26.08Z"/><path id="Path_24" data-name="Path 24" class="cls-5" d="M86.74,18.71c-.32,0-.79-.23-.76.47,0,1.26,0,2.53,0,3.8,0,.69.31,1.65-.13,2s-2.36.08-3.07.12c-.42,0-.54-.14-.53-.54,0-1,0-2.05,0-3.07,0-.29,0-.54-.36-.59A11.45,11.45,0,0,0,79,20.74a1.75,1.75,0,0,0-1.6,1.41,6.14,6.14,0,0,0-.12,2.56,1.91,1.91,0,0,0,1.82,1.71c.31,0,.62,0,.93,0s.58-.17.68.15a1.08,1.08,0,0,1-.15.89.65.65,0,0,1-.62.29,3.65,3.65,0,0,1-1.14-.07c-.78-.27-.78.16-.8.73,0,.77.57.57,1,.64,2,.37,2.91-.27,3.25-2.2.06-.37.2-.45.54-.45,1,0,3.09,0,4.15,0,.49,0,.57-.14.56-.6,0-1.07,0-2.15,0-3.22h0c0-1.15,0-2.29,0-3.44C87.46,18.55,87.07,18.68,86.74,18.71Zm-6.37,6.37c-1,.1-1.55-.2-1.66-.91a3.84,3.84,0,0,1,0-1.07A1.37,1.37,0,0,1,80.3,22a2,2,0,0,1,.32.1c.21.1.16.27.16.42,0,.35,0,.71,0,1.07h0a2.09,2.09,0,0,1,0,.5c-.09.33.36.91-.4,1Z"/><path id="Path_27" data-name="Path 27" class="cls-5" d="M70.49,11,78.07,11c.28,0,.63.13.62-.41A3.21,3.21,0,0,0,75.53,7.3h-.06c-1.21,0-2.43,0-3.65,0a3.18,3.18,0,0,0-3.23,3.11h0v.24A3.24,3.24,0,0,0,71.73,14h3.79a3,3,0,0,0,3-2.25c-.55-.1-1-.14-1.37.5a1.59,1.59,0,0,1-1.46.74c-1.32,0-2.63,0-3.94,0a1.87,1.87,0,0,1-1.75-1C69.57,11.15,69.63,11,70.49,11ZM70,9.44a2.18,2.18,0,0,1,2-1.2h3.35a2.19,2.19,0,0,1,2,1.24c.23.44.18.64-.38.62H70.32c-.65,0-.6-.22-.37-.66Z"/><path id="Path_29" data-name="Path 29" class="cls-5" d="M68.11,11.8A1.93,1.93,0,0,1,66.44,14a1.8,1.8,0,0,1-.4,0c-1,0-2,.27-2.89-.46-.16-.14-.26,0-.37.05a4.48,4.48,0,0,1-3.46.27c-1-.18-1.24-1.07-1.28-1.93-.06-1.35,0-2.72,0-4.08,0-.34.09-.53.48-.53s.55.16.55.56c0,1.19,0,2.38,0,3.58S59.36,13,60.59,13c1.66,0,1.93-.24,1.95-1.93,0-1.07,0-2.15,0-3.22,0-.34,0-.54.45-.55s.54.15.53.55q0,1.76,0,3.51c0,1.34.32,1.65,1.63,1.65,1.8,0,2-.19,2-2,0-1.05,0-2.1,0-3.15,0-.39.09-.54.51-.56s.48.23.47.57c0,.67,0,1.34,0,2h0C68.1,10.51,68.09,11.15,68.11,11.8Z"/><path id="Path_33" data-name="Path 33" class="cls-5" d="M104.23,8.56c0,.85,0,1.71,0,2.57h0c0,.93,0,1.86,0,2.79,0,1.48-.81,2.26-2,2.19-.33,0-.61-.06-.52-.46s-.34-.85.38-.94.76-.63.77-1.17c0-1.67,0-3.34,0-5,0-.65.25-.69.78-.72S104.25,8.05,104.23,8.56Z"/><path id="Path_34" data-name="Path 34" class="cls-5" d="M122,31.82c0,1.12,0,2.24,0,3.35s0,2.25,0,3.36c0,.67-.42.5-.77.49s-.76.19-.75-.48q0-3.36,0-6.72c0-.64.36-.54.73-.53S122,31.1,122,31.82Z"/><path id="Path_37" data-name="Path 37" class="cls-5" d="M99.3,19.19c0,.51-.08.77-.69.76s-.81-.25-.68-.79c-.12-.57.08-.75.66-.76S99.3,18.66,99.3,19.19Z"/><path id="Path_39" data-name="Path 39" class="cls-5" d="M73.53,28.75c-.6,0-.69-.2-.7-.73s.13-.76.73-.76.79.17.66.73C74.38,28.6,74.11,28.73,73.53,28.75Z"/><path id="Path_40" data-name="Path 40" class="cls-5" d="M95.76,40.58c.12.53,0,.77-.62.76s-.8-.12-.76-.74,0-.79.67-.75S96,39.93,95.76,40.58Z"/><path id="Path_41" data-name="Path 41" class="cls-5" d="M84.23,6.17c.07.45,0,.74-.6.74s-.58-.36-.59-.78,0-.72.58-.72S84.32,5.67,84.23,6.17Z"/><path id="Path_42" data-name="Path 42" class="cls-5" d="M72.62,40.54c.07.51,0,.78-.6.78s-.58-.29-.57-.71-.09-.78.58-.75S72.74,40.08,72.62,40.54Z"/><path id="Path_43" data-name="Path 43" class="cls-5" d="M68.63,28.72c-.54,0-.62-.23-.6-.68s-.07-.81.63-.79.55.4.55.82S69.19,28.72,68.63,28.72Z"/><path id="Path_46" data-name="Path 46" class="cls-5" d="M112.68,31.74c0,.38.13.83-.56.8-.51,0-.7-.17-.6-.64s-.07-.8.58-.78C112.58,31.15,112.73,31.29,112.68,31.74Z"/><path id="Path_47" data-name="Path 47" class="cls-5" d="M79.92,31.84c0,.42,0,.7-.59.71s-.6-.35-.58-.8.1-.6.6-.62S79.92,31.44,79.92,31.84Z"/><path id="Path_49" data-name="Path 49" class="cls-5" d="M112.2,19.22c0,.42,0,.73-.56.72s-.67-.18-.63-.65-.1-.78.57-.76S112.26,18.77,112.2,19.22Z"/><path id="Path_50" data-name="Path 50" class="cls-5" d="M85.87,6.12c0,.43.09.81-.57.79s-.52-.42-.55-.81,0-.68.59-.69S85.92,5.74,85.87,6.12Z"/><path id="Path_52" data-name="Path 52" class="cls-5" d="M60.25,32.55c-.62,0-.55-.35-.54-.77s0-.64.58-.65.52.43.55.79S60.76,32.54,60.25,32.55Z"/><path id="Path_54" data-name="Path 54" class="cls-5" d="M62.47,31.82c.09.47,0,.74-.59.73s-.47-.47-.53-.83.16-.56.59-.59C62.52,31.1,62.57,31.38,62.47,31.82Z"/><path id="Path_56" data-name="Path 56" class="cls-5" d="M67,28.71c-.64,0-.62-.32-.57-.75s0-.68.53-.7c.73,0,.55.41.59.8S67.5,28.7,67,28.71Z"/><path id="Path_58" data-name="Path 58" class="cls-5" d="M70.94,40.61c0,.37.08.71-.54.71s-.6-.34-.57-.76-.06-.69.53-.7S71,40.2,70.94,40.61Z"/><path id="Path_59" data-name="Path 59" class="cls-5" d="M88.24,41.32c-.61,0-.6-.3-.6-.73s0-.73.6-.73.56.37.54.77S88.83,41.32,88.24,41.32Z"/><path id="Path_60" data-name="Path 60" class="cls-5" d="M89.87,41.32c-.66,0-.51-.39-.51-.8s-.08-.65.54-.66.55.37.57.77S90.43,41.32,89.87,41.32Z"/><path id="Path_64" data-name="Path 64" class="cls-5" d="M110.47,32.53c-.55,0-.76-.17-.6-.68-.1-.46-.08-.76.51-.72.43,0,.7.07.6.58C110.91,32,111.22,32.55,110.47,32.53Z"/><path id="Path_65" data-name="Path 65" class="cls-5" d="M81.53,31.75c0,.41.13.81-.52.8s-.61-.24-.61-.7,0-.73.63-.72S81.56,31.43,81.53,31.75Z"/><path id="Path_66" data-name="Path 66" class="cls-5" d="M113.8,19.14c0,.46.12.84-.56.82s-.5-.45-.54-.82.06-.61.56-.61S113.91,18.75,113.8,19.14Z"/><path id="Path_67" data-name="Path 67" class="cls-5" d="M74.57,10.09h0Z"/></g></g></g></g></svg>