<svg xmlns="http://www.w3.org/2000/svg" viewBox="0 0 21.71 17.9"><defs><style>.cls-1{fill:#fff;}</style></defs><g id="Layer_2" data-name="Layer 2"><g id="Layer_5" data-name="Layer 5"><path id="Path_70" data-name="Path 70" class="cls-1" d="M21.61,2.13a8.4,8.4,0,0,1-2.2.63c.35-.06.87-.7,1.08-1A4.17,4.17,0,0,0,21.22.48a.11.11,0,0,0,0-.12.14.14,0,0,0-.11,0,11.27,11.27,0,0,1-2.6,1,.17.17,0,0,1-.18,0,2.61,2.61,0,0,0-.23-.24A4.79,4.79,0,0,0,16.84.32,4.45,4.45,0,0,0,14.9,0a4.53,4.53,0,0,0-1.83.52,4.8,4.8,0,0,0-1.48,1.21,4.47,4.47,0,0,0-.88,1.77,4.66,4.66,0,0,0-.05,1.86c0,.1,0,.12-.09.1A13.89,13.89,0,0,1,1.63.92C1.53.8,1.47.8,1.38.93a4.55,4.55,0,0,0,.77,5.36c.18.17.36.33.55.48A4.47,4.47,0,0,1,1,6.29c-.1-.07-.16,0-.17.09a2.19,2.19,0,0,0,0,.51,4.57,4.57,0,0,0,2.83,3.66,2.21,2.21,0,0,0,.57.17,5.06,5.06,0,0,1-1.69.06c-.13,0-.17,0-.13.15a4.76,4.76,0,0,0,3.56,3c.16,0,.32,0,.48.07l0,0A5.61,5.61,0,0,1,4,15.29a8.75,8.75,0,0,1-3.69.48c-.2,0-.24,0-.3,0s0,.08.06.13c.25.16.51.31.77.45a12.17,12.17,0,0,0,2.46,1,13.13,13.13,0,0,0,12.75-3c2.62-2.6,3.53-6.18,3.53-9.76,0-.14.17-.22.27-.29a8.94,8.94,0,0,0,1.73-1.8.55.55,0,0,0,.12-.35v0C21.7,2.08,21.7,2.09,21.61,2.13Z"/></g></g></svg>