<svg xmlns="http://www.w3.org/2000/svg" viewBox="0 0 31.59 26"><defs><style>.cls-1{fill:#07f;}</style></defs><g id="Layer_2" data-name="Layer 2"><g id="Layer_5" data-name="Layer 5"><path id="Path_2" data-name="Path 2" class="cls-1" d="M31.47,3.12a13.62,13.62,0,0,1-3.2.91c.51-.09,1.27-1,1.57-1.4A5.87,5.87,0,0,0,30.9.7a.12.12,0,0,0,0-.17.18.18,0,0,0-.16,0A16.57,16.57,0,0,1,26.94,2a.25.25,0,0,1-.26-.07c-.11-.12-.22-.24-.33-.34A6.68,6.68,0,0,0,24.51.47,6.43,6.43,0,0,0,21.7,0,6.68,6.68,0,0,0,19,.77a6.81,6.81,0,0,0-2.16,1.76A6.55,6.55,0,0,0,15.59,5.1a6.74,6.74,0,0,0-.07,2.72c0,.15,0,.18-.13.15-5.2-.77-9.52-2.63-13-6.62-.15-.17-.23-.17-.36,0-1.53,2.3-.79,6,1.13,7.8a7.71,7.71,0,0,0,.8.7,6.45,6.45,0,0,1-2.51-.7c-.16-.1-.23,0-.25.13a3.78,3.78,0,0,0,.05.75,6.67,6.67,0,0,0,4.11,5.32,3.6,3.6,0,0,0,.83.25,7.26,7.26,0,0,1-2.46.08c-.18,0-.25.06-.18.23a6.94,6.94,0,0,0,5.18,4.33c.23,0,.47,0,.7.1l-.05,0c-.58.89-2.6,1.55-3.53,1.88A12.72,12.72,0,0,1,.46,23c-.29,0-.35,0-.43,0s0,.12.09.2c.36.24.74.45,1.12.66a17.26,17.26,0,0,0,3.58,1.43c6.45,1.79,13.72.48,18.56-4.33,3.8-3.78,5.13-9,5.13-14.2,0-.2.24-.32.39-.43a12.58,12.58,0,0,0,2.52-2.63.8.8,0,0,0,.17-.5v0C31.6,3,31.6,3.06,31.47,3.12Z"/></g></g></svg>