<svg xmlns="http://www.w3.org/2000/svg" viewBox="0 0 699.55 249.44"><defs><style>.cls-1,.cls-2{fill:#fff;}.cls-1{opacity:0.64;}.cls-3{fill:#6e2381;}.cls-3,.cls-4,.cls-5{stroke:#fff;}.cls-4{fill:#3a4494;}.cls-5{fill:#614090;}</style></defs><g id="Layer_2" data-name="Layer 2"><g id="Layer_5" data-name="Layer 5"><g id="Group_13" data-name="Group 13"><rect id="Rectangle_5" data-name="Rectangle 5" class="cls-1" x="37.43" y="36.72" width="151" height="88"/><path id="Rectangle_7" data-name="Rectangle 7" class="cls-1" d="M6.43,140.72h99v107h0a99,99,0,0,1-99-99v-8Z"/><path id="Rectangle_6" data-name="Rectangle 6" class="cls-1" d="M159.93,149.72h0a30.49,30.49,0,0,1,30.5,30.5v9a30.5,30.5,0,0,1-30.5,30.5h0a30.51,30.51,0,0,1-30.5-30.5v-9A30.5,30.5,0,0,1,159.93,149.72Z"/></g><g id="Group_12" data-name="Group 12"><path id="Path_13" data-name="Path 13" class="cls-2" d="M565.89,54.84h0l2.5,0Zm-276.2,107h0Z"/><path id="Path_14" data-name="Path 14" class="cls-2" d="M440.81,79c0-2.36-.92-2.51-2.71-2.38s-3.41-.56-3.3,2.47c.24,7,0,14.11.1,21.16,0,2.09-.6,2.72-2.66,2.57a54,54,0,0,0-7.63,0c-1.76.11-2.17-.57-2.14-2.17.07-4.21-.09-8.43.07-12.63.07-1.86-.48-2.64-2.26-2.28-1.49.32-4-1.23-3.94,2.16s.07,7.06.09,10.59c0,5.15.27,4.26-4.13,4.3-6.09,0-6,0-6.34-6.18-.24-4.32-1.18-8.7-5.69-10.41a12.49,12.49,0,0,0-13.59,2.54c-1.13,1-2.17,2.16-3.75,3.73,0-5-.17-9.35.06-13.64.13-2.67-1.48-2.23-3-2.18s-3.4-.73-3.3,2.19c.2,5.38.12,10.78,0,16.17,0,2.51,1.12,5.8-.5,7.34s-4.85.22-7.36.5c-2.17.23-2.65-.68-2.59-2.67.13-4-.09-8,.09-12,.09-2.1-.84-2.63-2.58-2.4-1.51.2-3.73-.85-3.6,2.28.16,4.21,0,8.43.07,12.64,0,1.65-.45,2.25-2.14,2.17-3-.12-6.09-.14-9.12,0-2,.09-2.48-.78-2.44-2.6.1-4-.05-8,.06-12.06,0-1.82-.3-2.75-2.39-2.41-1.68.26-3.93-.72-3.51,2.56a34.25,34.25,0,0,1,0,6.16c-.14,2.72,1.23,6.42-.57,7.86s-5.25.26-8,.48c-2.33.19-2.78-.81-2.7-2.89.15-3.92,0-7.85,0-11.77,0-.95.22-1.93-1.35-2-4.1-.21-8.19-.68-12.28,0s-6.37,3.06-7.09,7.12a19.22,19.22,0,0,0,0,7.29c.32,1.6-.06,2.37-1.88,2.28a64,64,0,0,0-7.06,0c-1.67.1-2.24-.44-2.2-2.12.1-4.12,0-8.24.06-12.35,0-1.7-.07-2.89-2.28-2.65-1.8.2-4-.69-3.88,2.62.18,4,0,8,.12,12.05.06,1.76-.4,2.51-2.25,2.42a69.08,69.08,0,0,0-7.05,0c-1.86.11-2.33-.65-2.29-2.38.1-4.12-.07-8.24.06-12.35.05-1.73-.36-2.55-2.18-2.55-4.31,0-8.63-.25-12.93,0-5.1.26-7.69,3.16-7.94,8.34-.06,1.36,0,2.71,0,4.06-.42,7,3.17,10.47,10.87,10.47q85.13,0,170.25,0c2.23,0,2.49-.81,2.48-2.68C440.66,96.82,440.61,87.89,440.81,79Zm-173,23.66c-3.3-.35-4.44-1.54-4.65-4.81-.29-4.65.51-6,4.06-6.76,6.08-1.33,7.18-.44,7.17,5.82C274.32,103.33,274.32,103.33,267.76,102.64Zm56-5.59c0,.89,0,1.65-.07,2.32,0,.11,0,.22,0,.32s0,.41-.06.6,0,.19,0,.27a4,4,0,0,1-.1.5,3.1,3.1,0,0,1-.1.36,1.57,1.57,0,0,1-.1.28,1.62,1.62,0,0,1-.17.35l-.16.24c0,.07-.11.13-.17.2a1.44,1.44,0,0,1-.27.22,3.14,3.14,0,0,1-.31.18h0l-.35.13c-1,.31-2.62.16-5-.2a1.74,1.74,0,0,1-1.46-.75c-.87-1.45-.75-7.84.3-9.13,1.9-2.39,4.61-1.49,7.06-1.63,1,0,1.07.62,1.07,1.37Zm70,5.75h-2.35c-1.76,0-3.52,0-5.27,0-3.67,0-3.66,0-1.94-3.38,1.57-3.1,3.49-5.89,6.58-7.64,3.6-2,7-.8,8.5,3a6.18,6.18,0,0,1,.27.83c1.51,6.57,1,7.21-5.79,7.21Z"/><path id="Path_15" data-name="Path 15" class="cls-2" d="M698.21,79.15c0-2.48-1-2.73-2.91-2.57-1.67.13-3.52-.57-3.38,2.44.23,5.38.07,10.78.07,16.17,0,7.72,0,7.64-7.84,7.63-2.06,0-2.41-.75-2.4-2.54.08-7.06-.13-14.13.1-21.17.1-3-1.54-2.46-3.29-2.53s-3.06,0-3,2.53c.2,7.14,0,14.3.12,21.46,0,1.64-.41,2.29-2.11,2.22-2.74-.09-5.49-.07-8.23,0-1.55,0-2-.49-2-2,.13-4.32,0-8.63.1-12.94.09-2.95-2-2-3.46-2.1s-2.94-.32-2.84,2.1c.17,4.3,0,8.62.12,12.93,0,1.52-.43,2.1-2,2-2.65-.09-5.3-.14-7.94,0-2,.11-2.82-.42-2.7-2.56a28.76,28.76,0,0,0-.34-6.15c-.76-4.71-3.61-7.39-8.19-7.73a53.55,53.55,0,0,0-6.46,0c-1.87.08-2.63-.33-1.44-2.22a30.71,30.71,0,0,0,2.45-4.33c.38-.87,2.49-1.77.26-3-1.64-.87-3.1-2.58-4.9,0a89.25,89.25,0,0,0-5.24,8.44,3.75,3.75,0,0,0,.4,4.72c1.08,1.4,2,2.06,3.81,1.94,2.25-.16,4.5,0,6.77,0,5.45,0,6.46.93,6.8,6.34,0,.79,0,1.58.09,2.35.23,1.7-.52,2.22-2.15,2.22-7.45-.06-14.9-.09-22.35,0-2.07,0-2.45-.85-2.41-2.64.08-4,0-8,0-12.06,0-1.33.26-2.79-1.78-2.38-1.57.32-4.27-1.43-4.28,2.12,0,4.11-.21,8.23,0,12.33.14,2.24-.64,2.69-2.6,2.6a59.93,59.93,0,0,0-7.34,0c-2,.14-2.46-.71-2.41-2.54.12-4.11,0-8.22.08-12.34,0-1.38-.38-2.24-1.86-2.43a51.55,51.55,0,0,0-10.82-.63c-3.66.28-6.2,2-7.34,5.66a20.37,20.37,0,0,0-.64,4c-1.13,10,2.48,14.58,11.71,13.82,2.83-.22,3.43,1,2.17,3.7a3.15,3.15,0,0,1-3.38,1.77,46.51,46.51,0,0,1-5.53-.6c-1.28-.21-1.64.12-1.81,1.44-.39,2.92.38,4.14,3.63,4.61,7.84,1.13,12.11-1.2,13.36-8.46.38-2.18,1.13-2.55,3.12-2.54,16.46.08,32.93.05,49.4.05h0c16.56,0,33.13,0,49.69,0,2.17,0,3-.34,3-2.81Q698,92.38,698.21,79.15ZM585.38,102.78c-4.44.13-6.24-1-6.59-4.41a12,12,0,0,1,.42-4.92c.79-2.44,5.71-4.15,7.69-2.75.59.42.42,1,.43,1.59,0,1.47,0,2.94,0,4.39a5.14,5.14,0,0,1,0,1.75C586.69,99.89,589.05,102.67,585.38,102.78Z"/><path id="Path_16" data-name="Path 16" class="cls-2" d="M684.61,186.15c.06-2.69-1.38-2.49-3.11-2.46s-3.24-.35-3.14,2.4c.2,6,0,11.95,0,17.93,0,6.32,0,6.32-6.41,6.06-3.4-.14-4.22-1-4.26-4.46,0-1.27,0-2.55,0-3.82-.14-5.57-2.47-8.41-7.89-9.15a21.48,21.48,0,0,0-7,0c-6.4,1.29-5,.18-6.37,6.35a40.91,40.91,0,0,0-.52,5.52c-.15,1.79,1.15,4.18-.13,5.17s-3.55.47-5.38.38c-3-.14-6.15.61-9.4-.71a22.17,22.17,0,0,1,2-2.11c3-2.5,4.12-5.75,4.18-9.59a2.52,2.52,0,0,0-1.63-2.7,24.06,24.06,0,0,0-21.71,0c-.77.37-1.44.74-1.5,1.89-.15,3.55.36,6.81,3.09,9.41,1,.93,1.85,1.95,2.93,3.08-3.38,1.3-6.61.66-9.78.72-4.22.08-3.82.6-3.83-3.66,0-6.67-.1-13.33.06-20,.07-2.34-.77-2.85-2.87-2.7-1.77.12-3.38-.41-3.29,2.53.2,6.94-.06,13.91,0,20.87,0,2.2-.41,3.3-2.88,3a25.88,25.88,0,0,0-5.28,0c-2.26.2-3.16-.47-3-2.91.2-4,0-8,.09-12,0-1.63-.56-2.34-2-2.49-3.4-.39-6.79-1-10.23-.7-4.75.37-7.22,2.62-8.1,7.32a23.27,23.27,0,0,0-.33,2.61c-.6,7.44.64,14.52,11.41,13.48.1,0,.2,0,.3,0,2.81,0,3.4.89,2.36,3.51-.78,2-2.4,2.37-4.27,2.23-1.46-.11-2.91-.37-4.37-.45-.72-.05-2-1-2,.57s-1,3.67.6,4.6c7,3.89,14.82-.07,16.24-8.17.33-1.86.93-2.36,2.76-2.34,8.43.1,16.86,0,25.29.07,3.28,0,6.37-1.38,9.4-1.49s6.28,1.64,9.67,1.49c11.4-.46,22.82.23,34.25-.39a93,93,0,0,1,13.35.38c2,.18,2.73-.36,2.71-2.51C684.46,204,684.43,195.06,684.61,186.15ZM580.1,210.09c-3,.6-6.17-.78-6.85-3a11.88,11.88,0,0,1,.07-6.66c.63-2.36,5.21-3.88,7.5-2.69.83.44.58,1.15.6,1.78,0,1.46,0,2.93,0,4.39h0a8.73,8.73,0,0,1,0,2.34c-.35,1.28,1.22,3.31-1.28,3.8Zm44.27-3.27c-1.91-.07-5.49-4.57-5.85-6.55-.2-1.09.33-1.41,1.17-1.58s1.61-.33,2.42-.47l2.43-.46,2.3.37c1.49.25,3.63-.09,4.14,1.35s-.87,3.1-2,4.28c-1.28,1.36-2.56,3.15-4.61,3.06Zm32.68,3.29c-5.12,0-5.12,0-5.26-5.16,0-.58,0-1.17,0-1.75.1-4.65.43-5.09,3.79-5.16,4.31-.08,6.12,1.48,6.29,5.46,0,.59,0,1.18,0,1.76,0,5.44.71,4.77-4.81,4.85Z"/><path id="Path_17" data-name="Path 17" class="cls-2" d="M468.6,141.22c0-3-2.15-1.8-3.5-2s-2.72-.08-2.6,2.06c.16,2.73.06,5.48.06,8.22,0,6.75,0,6.75-6.84,6.78-5.69,0-5.69,0-5.88-5.76-.25-7.21-3.44-10.36-10.39-10.41-2.22,0-5.64,1-6.36-.46-1-2,1.85-4.12,2.79-6.3.4-.91,2.2-1.83.33-2.82-1.44-.75-2.84-2.75-4.75-.35a89,89,0,0,0-5.33,8.37c-1.45,2.29-.91,3.8.7,5.58a3.5,3.5,0,0,0,3,1.31c2.54-.07,5.1,0,7.64,0,4.87,0,6.21,1.35,6.27,6.26,0,.88-.07,1.77,0,2.65.13,1.52-.45,2-2,2-7.55-.09-15.09-.11-22.63,0-1.92,0-2.27-.74-2.24-2.41.06-4.11-.14-8.23,0-12.34.07-2.1-.78-2.59-2.58-2.32-1.53.23-3.83-.87-3.55,2.29.15,1.75.06,3.52,0,5.28-.05,3,1,7-.5,8.79-1.76,2-5.9.33-9,.69-2.35.27-2.77-.74-2.71-2.82.12-4-.12-8,0-12.05.07-1.59-.66-2.17-1.9-2.31-3.6-.41-7.18-1-10.82-.68s-6.35,2.05-7.31,5.69a22.84,22.84,0,0,0-.26,11.58,7.64,7.64,0,0,0,7.8,6.16c1.08,0,2.16-.06,3.23,0s2.39-.58,2.88.74-.12,2.5-.74,3.61a2.86,2.86,0,0,1-2.84,1.18c-1.75,0-3.51-.2-5.27-.3-.81-.05-2.2-1.09-2.07.76.12,1.51-1.17,4,.83,4.4,7.72,1.58,14.18,2.09,16-8.11.35-2,1.33-2.35,3.16-2.34,10.78.07,21.55,0,32.33,0H466.3c1.32,0,2.44.21,2.38-1.86C468.52,153.76,468.51,147.49,468.6,141.22Zm-78.51,15.12c-4.48-.18-6-1.12-6.11-4.77a12.47,12.47,0,0,1,.43-4.63c.79-2.27,5.75-4,7.73-2.73.6.4.44,1,.45,1.59,0,1.46,0,2.92,0,4.39h0a6.76,6.76,0,0,1,0,1.74c-.46,1.65,1.56,4.55-2.49,4.4Z"/><path id="Path_18" data-name="Path 18" class="cls-2" d="M653.91,141.14c0-2.8-1.92-1.82-3.28-1.92s-2.94-.35-2.85,2.07c.16,4.2,0,8.43.06,12.64,0,1.72-.34,2.52-2.23,2.37a44.38,44.38,0,0,0-5.88,0c-1.75.1-2.47-.42-2.33-2.3a23.65,23.65,0,0,0-.73-8.16c-1-3.54-3.12-6.18-6.91-6.76-4.08-.61-8-.17-11.21,2.9-1.23,1.21-2.31,2.56-3.47,3.85l-.85-.53a26.07,26.07,0,0,1,0-3.75c.3-2.13-.69-2.51-2.52-2.32-1.62.17-3.65-.76-3.48,2.36.22,4.1,0,8.22.1,12.34,0,1.73-.4,2.41-2.28,2.37-5.78-.12-11.56-.13-17.34,0-1.89,0-2.28-.6-2.26-2.34.09-7.05,0-14.11.09-21.16,0-2.08-.59-2.78-2.64-2.6-1.79.16-3.61-.47-3.55,2.61.19,9,.11,18,0,27,0,1.75.6,2.09,2.2,2.09q34.7-.07,69.37,0c1.5,0,2-.37,2-1.95C653.88,153.68,653.84,147.41,653.91,141.14Zm-28,15.13h-3.23c-2.16,0-4.32-.05-6.47,0-1.69.05-2.25-.76-1.6-2.15,1.82-3.89,4.27-7.34,8.32-9.13,3.72-1.63,6.73,0,8,4,0,.1,0,.19.07.29,1.64,5.75.72,7-5,7Z"/><path id="Path_19" data-name="Path 19" class="cls-2" d="M607.15,34.23c-.48-3.21-2.53-1.94-4.1-2-2-.11-1.77,1.55-1.56,2.71.72,4,.2,8,.5,12,.18,2.34-1.09,2.25-2.64,2.15s-3.15.18-2.93-2.41c.29-3.4.16-6.86.18-10.28,0-.83.24-1.71-1.07-2-3.77-.91-5.14.07-5.14,3.9,0,1.86.09,3.73,0,5.59A11.35,11.35,0,0,1,590,47c-.63,2-2.35,2.2-4.06,2-2-.18-1-1.83-1-2.74a70.21,70.21,0,0,1,0-9.4c.26-2.88-1.4-2.46-3.22-2.59-2.18-.15-2.93.47-2.78,2.75.22,3.22,0,6.47.1,9.7.06,1.68-.24,2.4-2.19,2.35-6.27-.14-12.54-.13-18.82,0-1.71,0-2.12-.51-2.09-2.13.1-4.12-.07-8.23.1-12.34.08-2.14-.72-2.73-2.68-2.72-2.44,0-4.89-.37-7.32-.28-8.24.31-12.69.43-13.26,9.31-.65,10.41,2,14,12.29,13.91h20.87c.83,0,1.67,0,2.5,0,2.12,0,4.22.09,6.32-.06,6.18-.47,12.52,1.32,18.56-1.24a1.53,1.53,0,0,1,1.13.12c3.8,1.93,7.9.83,11.85,1.17C607.77,55,608,54.32,608,53,607.9,46.73,608.07,40.47,607.15,34.23ZM543.81,49.06c-3.4-.19-4.74-1.44-5.07-4.77-.41-4.09.79-6.11,4.09-6.91.1,0,.18-.08.28-.1,5.8-1.15,6.78-.27,6.78,6,0,6.07,0,6.07-6.08,5.74Z"/><path id="Path_20" data-name="Path 20" class="cls-2" d="M329.41,160.23c0,1.93-1.15,1.64-2.31,1.64H289.69c-7.42,0-14.84,0-22.26.06-1.89,0-2.5-.43-2.48-2.4.11-8.91.13-17.83,0-26.75,0-2.42,1-2.71,3-2.63s3.35-.19,3.27,2.62c-.2,7,0,14.11-.1,21.16,0,1.78.39,2.38,2.24,2.35,5.88-.1,11.76-.07,17.63,0,1.85,0,2.58-.4,2.49-2.45-.18-4.1.1-8.23-.07-12.34-.15-3.4,2.25-2,3.79-2.29,2-.34,2.4.71,2.35,2.53-.13,4.11,0,8.22-.09,12.34,0,1.63.46,2.23,2.15,2.2q9.86-.12,19.7,0c1.55,0,2.06-.48,2-2-.12-2.25,0-4.5,0-6.76s-1.17-3.38-3.46-3.35c-2.64,0-5.28,0-7.93.09-1.19,0-1.93-.27-1.75-1.61.13-1-.69-2.2,1.28-2.64a41.14,41.14,0,0,1,12.51-1,5.78,5.78,0,0,1,5.45,5.92C329.51,150,329.33,155.14,329.41,160.23Z"/><path id="Path_21" data-name="Path 21" class="cls-2" d="M699.52,51.79c-.2-3.12,0-6.27-.07-9.4-.22-6.49-2.43-9.84-7.31-10.35a37.23,37.23,0,0,0-10.22.28c-2.39.42-3.21,1.59-3.62,3.73a29.17,29.17,0,0,0-.56,10.49c.37,2.17-.37,2.63-2.4,2.58-5.58-.12-11.17-.17-16.75,0-2.68.09-3.64-.46-3.64-3.46,0-10.73-6.22-16.08-16.15-14.25-1.53.28-2.52.84-2.13,2.67.31,1.46.33,2.75,2.54,2.58,7.56-.6,9.86,4.56,9.82,10.41,0,1.49-.37,2.08-2,2-3.32-.11-6.67.08-10-.08-2.13-.1-2.76.68-2.58,2.7.15,1.77-.18,3.26,2.66,3.2,10-.22,20-.09,30-.09h0c9.8,0,19.6-.1,29.39.07C699.07,54.94,699.67,54.15,699.52,51.79ZM692,49.05c-1.07-.06-2.15,0-3.23,0-5.31.09-5.31.09-5.28-5.4a8.64,8.64,0,0,1,0-1.76c.38-1.88-.68-4.55,2.82-4.72,4.26-.2,6.39,1,6.85,4.5.27,2,.18,4.07.26,6.1.05,1-.5,1.34-1.45,1.3Z"/><path id="Path_22" data-name="Path 22" class="cls-2" d="M524.86,106.93c0,1.81-1.22,1.41-2.22,1.41q-12.19,0-24.4,0v0c-8,0-16.07-.07-24.11,0-1.91,0-2.48-.54-2.47-2.42,0-9.11.07-18.23-.1-27.33,0-2.49,1.43-2.07,2.83-2s3.42-.79,3.36,2.14c-.14,7,.05,14.11-.13,21.16-.06,2.38.71,3.06,2.95,2.85a32.08,32.08,0,0,1,5.88,0c2.14.2,2.63-.69,2.58-2.66-.13-4.11.13-8.24-.11-12.34-.12-2,.69-2.32,2.12-2s3.84-1.35,3.79,1.95c-.06,4.21.11,8.43,0,12.63-.07,2,.67,2.48,2.53,2.45q9.54-.12,19.11,0c1.77,0,2.46-.46,2.31-2.32-.17-2,0-4.12-.06-6.18-.14-2.52-1.33-3.92-4.12-3.7-2.44.18-4.9.06-7.35.11-1.11,0-2-.11-1.83-1.54.12-1-.54-2.32,1.28-2.75a35.83,35.83,0,0,1,13.09-.81,5.2,5.2,0,0,1,4.77,5.17C524.71,96.18,524.73,101.56,524.86,106.93Z"/><path id="Path_23" data-name="Path 23" class="cls-2" d="M369.35,130.21c-1.51.09-3.41-.74-3.3,2.2.2,5.08.14,10.18,0,15.27,0,2.81,1.3,6.74-.54,8.11s-5.62.34-8.54.51c-1.74.11-2.18-.59-2.15-2.19.07-4.21,0-8.42.05-12.63,0-1.4-.26-2.33-1.74-2.44-3.51-.29-7-1-10.53-.63-4.66.45-6.7,2.22-7.87,6.81a24.49,24.49,0,0,0-.28,9.61c.69,4.62,3.83,7,8.6,7h4.11c.69,0,1.35,0,1.54.94a3.65,3.65,0,0,1-2.67,4.43,3.39,3.39,0,0,1-.71.11,35.74,35.74,0,0,1-4.39-.2c-3.52-.24-3.4-.17-3.51,3.3-.07,2.51,1.69,1.92,2.92,2.17,8.76,1.78,12.28-.38,14.24-8.89.33-1.43.84-1.93,2.3-1.9,4.2.08,8.43-.14,12.63.09,2.35.14,2.76-.7,2.68-2.79-.15-4.31,0-8.61,0-12.93h.06c0-4.6-.15-9.2.05-13.8C372.42,129.83,370.92,130.11,369.35,130.21ZM346.92,156.3c-4.55.11-6.18-.82-6.57-4.3a14.07,14.07,0,0,1,.1-3.49,5.57,5.57,0,0,1,6.27-4.78,5.39,5.39,0,0,1,1.62.47c.73.33.66.88.66,1.42,0,1.55,0,3.11,0,4.67h0a5.08,5.08,0,0,1,0,1.74C348.43,153.49,350.58,156.22,346.92,156.3Z"/><path id="Path_24" data-name="Path 24" class="cls-2" d="M564.4,76.66c-1.32.07-3.25-.93-3.15,1.94.17,5.19.12,10.39,0,15.58,0,2.82,1.27,6.79-.53,8.15s-5.63.31-8.56.47c-1.71.09-2.19-.57-2.15-2.19.09-4.21,0-8.43.06-12.64,0-1.2-.08-2.18-1.49-2.39a45,45,0,0,0-12-.6,7.23,7.23,0,0,0-6.57,5.8,25.48,25.48,0,0,0-.48,10.5,7.82,7.82,0,0,0,7.47,7c1.26.12,2.56,0,3.81.1,1,.11,2.38-.7,2.8.63a4.48,4.48,0,0,1-.62,3.66,2.7,2.7,0,0,1-2.54,1.16,14.66,14.66,0,0,1-4.67-.27c-3.23-1.1-3.22.65-3.3,3-.12,3.16,2.33,2.33,3.86,2.63,8,1.53,12-1.12,13.35-9,.28-1.53.83-1.85,2.24-1.83,4.31.08,8.63-.09,12.94.08,2,.08,2.37-.6,2.3-2.47-.17-4.4-.06-8.82-.06-13.23h0c0-4.7-.13-9.41.06-14.11C567.34,76,565.73,76.59,564.4,76.66Zm-22.09,26.18c-4,.4-6.37-.8-6.82-3.77a15.92,15.92,0,0,1,0-4.36A5.59,5.59,0,0,1,542,90.23a5.2,5.2,0,0,1,1.32.42c.87.42.66,1.07.67,1.71,0,1.46,0,2.92,0,4.38h0a7.74,7.74,0,0,1,0,2c-.4,1.4,1.47,3.74-1.64,4Z"/><path id="Path_25" data-name="Path 25" class="cls-2" d="M698.21,159.88c0,1.82-.71,2.05-2.24,2-5.78-.07-11.55,0-17.33,0s-11.56-.07-17.33,0c-1.79,0-2.56-.43-2.24-2.28.24-1.44-.75-3.8,2.15-3.36,3.32.48,3.8-1.07,3.64-3.92-.23-4.29.06-8.62-.11-12.92-.09-2.28.32-3.33,2.94-3.28,2.41,0,3.17.67,3.07,3.13-.2,4.89.09,9.8-.1,14.68-.13,3.12,2,2.15,3.52,2.32,1.81.2,2.85-.18,2.8-2.48-.18-6.75,0-13.51-.14-20.26-.08-2.61.58-3.41,3.34-3.46,3.18-.06,2.82,1.68,2.81,3.69,0,6.75.07,13.5,0,20.26,0,1.89.6,2.25,2.32,2.27,6.78,0,6.78.09,6.78-6.6,0-5.68.1-11.36-.06-17-.05-2.23.87-2.68,2.78-2.48,1.61.17,3.52-.66,3.46,2.38C698.06,141.67,698.11,150.77,698.21,159.88Z"/><path id="Path_26" data-name="Path 26" class="cls-2" d="M562.25,199.19a7.41,7.41,0,0,0-5.9-6.16c-4.19-1.09-8.33-.63-12.45.34a2.48,2.48,0,0,0-2,2.16c-.86,4.12-1.65,8.26-.84,12.47.32,1.69-.18,2.12-1.71,2.1-2.25,0-4.51-.12-6.75,0-2.09.14-2.69-.64-2.66-2.69.1-7-.07-14.1.08-21.15,0-2.42-1-2.68-3-2.62s-3.31,0-3.26,2.68c.16,8.91.13,17.82,0,26.73,0,2.1.77,2.37,2.54,2.33,5.59-.1,11.17,0,16.75,0h17.63c.89,0,2.11.39,2.08-1.25C562.63,209.15,563.19,204.14,562.25,199.19ZM552,210.11c-5.42,0-5.42,0-5.45-5.49,0-.59,0-1.17.08-1.76.4-4.57.71-4.93,4.2-4.84,4.1.12,5.65,1.58,5.85,5.56,0,.58,0,1.17,0,1.75,0,4.78,0,4.78-4.71,4.78Z"/><path id="Path_27" data-name="Path 27" class="cls-2" d="M488.08,45.15l31.14-.3c1.15,0,2.59.54,2.53-1.69-.21-7.58-5.6-13.17-13.2-13.32-5-.1-10-.07-15,0-7.83.11-13.26,5.78-13.24,13.73a13.27,13.27,0,0,0,12.9,13.63c.19,0,.37,0,.56,0q7.5,0,15,0c5.88,0,10.35-3.46,12.12-9.23-2.29-.42-4.22-.56-5.63,2-1.17,2.17-3.56,3-6,3-5.39.07-10.78.11-16.17,0a7.66,7.66,0,0,1-7.17-4.26C484.31,45.62,484.56,45.18,488.08,45.15Zm-2.22-6.53a9,9,0,0,1,8.34-4.93q6.89-.09,13.76,0a8.9,8.9,0,0,1,8.22,5.07c1,1.8.73,2.62-1.56,2.57-3.25-.07-6.51-.06-9.76,0h-4c-2.66,0-5.3,0-7.95,0-1.84,0-3.69,0-5.53.08C484.73,41.44,484.9,40.4,485.86,38.62Z"/><path id="Path_28" data-name="Path 28" class="cls-2" d="M494.63,151.57c0-3.33,0-6.66,0-10,0-1.34-.26-2.31-1.78-2.48-3.59-.39-7.17-1-10.8-.67-4.29.45-6.64,2.23-7.56,6.14a24.06,24.06,0,0,0-.63,9c.87,5.93,3.61,8.27,9.63,8.28,1.08,0,2.16,0,3.24,0,.81,0,1.48.14,1.61,1.24a3.59,3.59,0,0,1-2.86,4.2,2.61,2.61,0,0,1-.48,0,31.2,31.2,0,0,1-4.1-.21c-3.82-.27-3.88-.06-3.65,3.72.15,2.6,2.2,1.57,3.28,1.8,8.5,1.8,12.58-1.12,13.83-9.69C494.93,159.21,494.56,155.39,494.63,151.57Zm-8.58,4.72c-4.49-.14-6-1.1-6.07-4.81a16.47,16.47,0,0,1,.32-3.77c.63-3,5-4.94,7.66-3.49.65.35.59.94.59,1.51,0,1.56,0,3.12,0,4.68h0a5.94,5.94,0,0,1,0,1.46c-.46,1.66,1.47,4.55-2.51,4.42Z"/><path id="Path_29" data-name="Path 29" class="cls-2" d="M478.31,48.29c.1,5.45-3.13,9-8.51,8.87-4-.1-8.31,1.12-11.87-1.89-.64-.55-1-.08-1.51.22-4.53,2.9-9.47,2-14.2,1.12-4-.76-5.09-4.41-5.24-7.93-.25-5.57-.05-11.16-.08-16.75,0-1.4.35-2.2,2-2.19s2.25.64,2.22,2.29c-.08,4.9-.06,9.8,0,14.7,0,5.18,1.29,6.43,6.35,6.44,6.83,0,7.9-1,8-8,.07-4.41,0-8.82,0-13.22,0-1.38.18-2.22,1.84-2.26s2.22.63,2.19,2.26c-.08,4.8-.06,9.6,0,14.4,0,5.51,1.32,6.78,6.69,6.77,7.4,0,8.18-.76,8.21-8.15,0-4.32.05-8.63,0-12.94,0-1.59.38-2.22,2.11-2.3,2-.09,2,.94,1.93,2.34-.08,2.75,0,5.49,0,8.23h0C478.3,43,478.26,45.64,478.31,48.29Z"/><path id="Path_30" data-name="Path 30" class="cls-2" d="M573.58,146.06c0,4.51-.07,9,0,13.51,0,1.68-.24,2.4-2.2,2.36q-9.84-.21-19.68,0c-2.1,0-2.24-.94-2.06-2.47.17-1.37-.72-3.59,2-3.16,3.49.54,3.95-1.16,3.8-4.11-.23-4.58,0-9.2-.11-13.8-.09-3.27,2.32-1.75,3.72-2.07,1.57-.35,2.56.07,2.51,2.08-.11,5.19.12,10.39-.08,15.57-.09,2.5,1.29,2.35,2.91,2.3s3.26.45,3.2-2.35c-.17-7.13.11-14.29,0-21.42-.08-3.15,2-2.1,3.5-2.29,1.8-.23,2.65.25,2.58,2.34-.16,4.5,0,9,0,13.51Z"/><path id="Path_31" data-name="Path 31" class="cls-2" d="M544.59,159.84c0,1.73-.56,2.13-2.18,2.09-3.51-.11-7,0-11,0-3.91-.36-8.33.5-12.68-.56-5-1.22-7.11-4.06-6.68-9.07a53.52,53.52,0,0,1,.85-5.49c.47-2.41,2.31-3.3,4.67-2.5,1,.34.76,1,.71,1.61-.17,1.85-.39,3.69-.54,5.54a3.87,3.87,0,0,0,3.11,4.48,5.12,5.12,0,0,0,.78.06c5.17.29,10.36.18,15.54.26,1.66,0,1.25-1.17,1.25-2,0-4.2.15-8.42,0-12.61-.11-2.4,1.13-2.5,2.88-2.41s3.51-.45,3.4,2.5C544.42,147.71,544.49,153.79,544.59,159.84Z"/><path id="Path_32" data-name="Path 32" class="cls-2" d="M517.15,213.42c0,1.57-.44,2-2,2-3.63-.1-7.25,0-11.68,0-3.56-.34-8,.6-12.33-.48-4.88-1.2-7-4.13-6.53-9.16.16-1.74.47-3.48.78-5.21.48-2.74,1.77-3.42,4.45-2.69,1.21.32.91,1.11.86,1.8-.13,1.75-.42,3.49-.53,5.25-.18,2.69,1.2,4.18,3.78,4.69,5.15,1,10.35.32,15.52.51,1.68.06,1.49-1.16,1.5-2.22,0-4.21.18-8.42,0-12.62-.12-3.43,2.34-1.89,3.83-2.2,1.72-.36,2.35.28,2.31,2.17C517,201.29,517.08,207.36,517.15,213.42Z"/><path id="Path_33" data-name="Path 33" class="cls-2" d="M626.62,35c-.13,3.52,0,7.05,0,10.57h0c0,3.82.11,7.64,0,11.45-.23,6.08-3.34,9.27-8.44,9-1.33-.06-2.51-.25-2.1-1.89.33-1.32-1.4-3.51,1.55-3.87s3.11-2.6,3.14-4.8c0-6.85.17-13.71,0-20.55-.08-2.69,1-2.83,3.21-3C626.47,31.75,626.7,32.89,626.62,35Z"/><path id="Path_34" data-name="Path 34" class="cls-2" d="M454.14,78.76c-.2,4.59-.05,9.19-.05,13.78s-.12,9.2,0,13.79c.1,2.75-1.72,2-3.13,2s-3.14.78-3.1-2q.19-13.8,0-27.58c0-2.62,1.46-2.24,3-2.17S454.28,75.8,454.14,78.76Z"/><path id="Path_35" data-name="Path 35" class="cls-2" d="M697.72,186.07c-.24,4.58-.06,9.17-.06,13.76s-.08,9,0,13.48c0,1.65-.39,2.14-2.07,2.13-4.06,0-4.07.05-4.08-4,0-8.4.1-16.8-.07-25.2-.05-2.66,1.38-2.51,3.13-2.47S697.88,183.27,697.72,186.07Z"/><path id="Path_36" data-name="Path 36" class="cls-2" d="M413.5,135.42c-3.1.18-2.14-1.86-2.38-3.42-.38-2.47.85-2.77,3-2.89,2.83-.15,2.72,1.43,2.48,3.42C417.27,135.22,415.67,135.28,413.5,135.42Z"/><path id="Path_37" data-name="Path 37" class="cls-2" d="M611.63,78.65c0,2.11-.3,3.14-2.81,3.12s-3.32-1-2.8-3.23c-.5-2.36.32-3.08,2.7-3.14C611.41,75.34,611.65,76.46,611.63,78.65Z"/><path id="Path_38" data-name="Path 38" class="cls-2" d="M319.9,171.36c-2.17,0-2.88-.51-2.77-2.74.1-2,0-3.46,2.82-3.31,2.22.11,3.36.48,2.76,2.92C323.31,170.64,322.39,171.4,319.9,171.36Z"/><path id="Path_39" data-name="Path 39" class="cls-2" d="M515.29,117.88c-2.43.05-2.81-.79-2.87-3,0-2.39.55-3.13,3-3.12s3.25.68,2.7,3C518.78,117.27,517.67,117.83,515.29,117.88Z"/><path id="Path_40" data-name="Path 40" class="cls-2" d="M365.89,114.76c.48,2.15,0,3.17-2.55,3.11-2.34-.05-3.27-.49-3.13-3,.12-2,.12-3.24,2.77-3.07C365.19,111.92,366.66,112.08,365.89,114.76Z"/><path id="Path_41" data-name="Path 41" class="cls-2" d="M544.49,25.18c.29,1.87,0,3-2.45,3.05-2.68,0-2.37-1.49-2.41-3.21s.07-2.95,2.39-2.95S544.89,23.15,544.49,25.18Z"/><path id="Path_42" data-name="Path 42" class="cls-2" d="M300.45,114.55c.28,2.11.05,3.24-2.47,3.22s-2.4-1.19-2.36-2.91-.37-3.18,2.39-3.08C300.39,111.88,301,112.69,300.45,114.55Z"/><path id="Path_43" data-name="Path 43" class="cls-2" d="M495.2,117.76c-2.24,0-2.57-.94-2.45-2.78s-.32-3.31,2.58-3.23,2.25,1.63,2.26,3.34C497.88,116.8,497.48,117.76,495.2,117.76Z"/><path id="Path_44" data-name="Path 44" class="cls-2" d="M299.81,171.38c-3.13.1-2.06-2-2.3-3.46-.32-2.06.57-2.5,2.55-2.6,2.78-.14,2.28,1.58,2.34,3.49C302.69,170.48,302.11,171.31,299.81,171.38Z"/><path id="Path_45" data-name="Path 45" class="cls-2" d="M507.08,190.05c0,1.7.2,3.13-2.42,3.09-2.45,0-2.72-1.13-2.38-2.74-.16-2-.36-3.35,2.29-3.35S507.1,188.27,507.08,190.05Z"/><path id="Path_46" data-name="Path 46" class="cls-2" d="M425.31,78.45c-.17,1.55.53,3.38-2.31,3.29-2.09-.07-2.88-.73-2.48-2.65-.1-1.8-.27-3.3,2.4-3.18C424.91,76,425.5,76.6,425.31,78.45Z"/><path id="Path_47" data-name="Path 47" class="cls-2" d="M319.43,78.84c0,1.73-.12,2.86-2.44,2.92-2.69.07-2.48-1.43-2.39-3.26-.45-2,.45-2.47,2.47-2.56C319.54,75.83,319.41,77.2,319.43,78.84Z"/><path id="Path_48" data-name="Path 48" class="cls-2" d="M462.06,135.42c-2.51,0-2.22-1.53-2.25-3.09s0-2.83,2.39-2.9c2.9-.08,2.16,1.67,2.26,3.55C464.72,134.45,464.36,135.45,462.06,135.42Z"/><path id="Path_49" data-name="Path 49" class="cls-2" d="M659.34,78.76c.14,1.75.13,3-2.3,3-2.11,0-2.74-.72-2.57-2.68.13-1.58-.39-3.18,2.35-3.13C659.2,76,659.59,76.93,659.34,78.76Z"/><path id="Path_50" data-name="Path 50" class="cls-2" d="M551.24,25c.1,1.78.38,3.34-2.33,3.27s-2.14-1.74-2.26-3.34c-.13-1.84.19-2.8,2.43-2.83C551.59,22.06,551.44,23.43,551.24,25Z"/><path id="Path_51" data-name="Path 51" class="cls-2" d="M532.42,139.53c-2.17,0-3-.65-2.79-2.84.17-1.58-.43-3.2,2.36-3.16,2.4,0,2.8,1,2.52,2.46C534.38,137.84,535.14,139.59,532.42,139.53Z"/><path id="Path_52" data-name="Path 52" class="cls-2" d="M266.32,81.78c-2.55,0-2.28-1.46-2.23-3.17-.21-1.65.06-2.64,2.36-2.69,2.9-.08,2.14,1.76,2.29,3.25C268.92,81,268.38,81.74,266.32,81.78Z"/><path id="Path_53" data-name="Path 53" class="cls-2" d="M647.48,135.42c-2.42,0-2.4-1.31-2.37-3s-.1-3,2.52-3c2.83,0,2.26,1.65,2.32,3.43C650.2,134.49,649.75,135.44,647.48,135.42Z"/><path id="Path_54" data-name="Path 54" class="cls-2" d="M275.43,78.75c.36,2,0,3-2.44,3-2.88-.06-1.91-1.93-2.16-3.4-.34-2.1.64-2.31,2.42-2.4C275.63,75.83,275.83,77,275.43,78.75Z"/><path id="Path_55" data-name="Path 55" class="cls-2" d="M654.36,135.42c-2.74,0-2.3-1.58-2.42-3.23-.13-1.83.16-2.7,2.42-2.77,2.83-.08,2.24,1.58,2.18,3.24C656.83,134.29,656.79,135.4,654.36,135.42Z"/><path id="Path_56" data-name="Path 56" class="cls-2" d="M488.44,117.75c-2.62.11-2.52-1.33-2.34-3.08-.2-1.65-.21-2.8,2.2-2.9,3-.12,2.25,1.72,2.4,3.32S490.53,117.67,488.44,117.75Z"/><path id="Path_57" data-name="Path 57" class="cls-2" d="M471.32,132.5c.24,1.72.21,2.88-2.24,2.92-2.66,0-2.41-1.42-2.48-3.15s0-2.81,2.4-2.85C471.63,129.38,471.56,130.71,471.32,132.5Z"/><path id="Path_58" data-name="Path 58" class="cls-2" d="M293.56,114.84c0,1.55.31,3-2.25,2.94s-2.46-1.41-2.32-3.13c-.2-1.63-.26-2.82,2.18-2.87C293.84,111.72,293.58,113.18,293.56,114.84Z"/><path id="Path_59" data-name="Path 59" class="cls-2" d="M340.31,117.78c-2.52,0-2.49-1.21-2.49-3s-.07-3,2.48-3c2.76,0,2.29,1.54,2.2,3.16C342.78,116.63,342.7,117.75,340.31,117.78Z"/><path id="Path_60" data-name="Path 60" class="cls-2" d="M347,117.78c-2.71,0-2.1-1.6-2.1-3.3-.12-1.4-.32-2.67,2.2-2.71,2.77,0,2.27,1.51,2.35,3.14C349.54,116.73,349.31,117.76,347,117.78Z"/><path id="Path_61" data-name="Path 61" class="cls-2" d="M500.06,190c.14,1.75.38,3.15-2.3,3.14s-2.32-1.53-2.36-3.14-.22-2.9,2.26-2.93S500.32,188.2,500.06,190Z"/><path id="Path_62" data-name="Path 62" class="cls-2" d="M527.58,136.22c.07,1.89.35,3.31-2.22,3.34-2.78,0-2.25-1.64-2.36-3.24-.14-1.81.13-2.77,2.43-2.78C528,133.53,527.75,134.91,527.58,136.22Z"/><path id="Path_63" data-name="Path 63" class="cls-2" d="M292.94,171.39c-2.55,0-2.21-1.4-2.19-2.94s-.47-3.19,2.31-3.15c2.62,0,2.51,1.37,2.31,3.18C295.73,170.36,295.38,171.38,292.94,171.39Z"/><path id="Path_64" data-name="Path 64" class="cls-2" d="M416.24,81.69c-2.25-.06-3.13-.71-2.48-2.8-.4-1.89-.32-3.1,2.12-3,1.76.11,2.86.28,2.44,2.37C418.05,79.68,419.31,81.77,416.24,81.69Z"/><path id="Path_65" data-name="Path 65" class="cls-2" d="M326,78.48c0,1.7.51,3.33-2.14,3.27-2.22,0-2.5-1-2.51-2.86s.08-3,2.57-3S326.17,77.15,326,78.48Z"/><path id="Path_66" data-name="Path 66" class="cls-2" d="M665.93,78.43c.08,1.92.46,3.45-2.3,3.37s-2-1.84-2.23-3.34c-.22-1.8.25-2.51,2.31-2.53C666,75.92,666.37,76.85,665.93,78.43Z"/><path id="Path_67" data-name="Path 67" class="cls-2" d="M504.86,41.3h-4c-2.65,0-5.3,0-7.95,0,2.64,0,5.29,0,7.95,0Z"/></g><g id="Group_11" data-name="Group 11"><path id="Path_8" data-name="Path 8" class="cls-3" d="M222.38,44a23.87,23.87,0,0,0-.28-2.53c-2.1,0-4-.07-5.94,0-16.35.67-29.14-7.15-31.77-24.07a4.66,4.66,0,0,0-2.49-3C155.68,4.17,128.75-1.26,100.41,1A214.17,214.17,0,0,0,41.75,14.33,5.46,5.46,0,0,0,39,17.89c-2.68,14.24-12.76,23-27.2,23.37-3.38.09-6.75,0-10.35,0v90.19c1,.08,1.54.18,2.13.18q107.63,0,215.24.1c3,0,3.63-1,3.62-3.78C222.36,100,222.39,72,222.38,44ZM85.47,92.46a40.34,40.34,0,0,0,0,5.92c-3.12-1.84-5.68-3.25-8.14-4.82-7.94-5-15.81-10.24-23.82-15.21-2-1.26-2.4-2.75-2.71-5-.77-5.54,1.66-8.45,6.31-11.1,8.59-4.91,16.76-10.53,25.11-15.84.78-.49,1.63-.87,3.24-1.72,0,4.66.17,8.53-.11,12.37-.08,1-1.38,2.13-2.4,2.77-6.14,3.82-12.34,7.52-19,11.57,5.17,3.2,9.7,6.68,14.76,9C84.22,82.92,86.49,86.51,85.47,92.46Zm41.3-42.19c-7.72,20.31-15.48,40.61-23.13,61-.82,2.18-1.91,3-4.22,2.83-3-.2-6,0-9.65,0,1.52-4.29,2.77-8,4.16-11.71,7.6-20,15.3-40,22.81-60.09,1-2.74,2.36-3.84,5.25-3.6s5.52.06,9,.06c-1.56,4.25-2.87,7.94-4.27,11.6ZM167,78.7q-13.66,8.8-27.37,17.57c-1,.61-2.05,1.06-3.74,1.93,0-4.53-.16-8.48.11-12.4.08-1,1.4-2.13,2.42-2.77,5.42-3.4,10.93-6.66,16.4-10,.69-.42,1.35-.91,2.43-1.64-6.52-4-12.62-7.78-18.86-11.37a4.49,4.49,0,0,1-2.59-4.63c.15-3.32.05-6.65.05-11L149.39,53l17.44,11C171.67,67.08,171.78,75.61,167,78.7Z"/><path id="Path_9" data-name="Path 9" class="cls-4" d="M219,137.21c-11.63.1-23.26,0-34.89,0H114.48c-.11,1.52-.26,2.69-.26,3.86,0,34.53,0,69.06-.15,103.6,0,3.39,1,4.57,4.3,4.14,4.55-.58,9.14-.86,13.69-1.41,18.69-2.26,35.48-9.19,49.57-21.67,25.57-22.63,36.47-52.45,40.73-85.36C222.7,137.72,221.4,137.19,219,137.21ZM163.65,217l-1.24-.34V193H139.14l22.45-41.34,1.23.36v23.34h23.36L163.65,217Z"/><path id="Path_10" data-name="Path 10" class="cls-5" d="M105.89,236.53c.07,3.73,0,11.94,0,11.94s-11.87-.4-17.16-1.24c-14.08-2.24-27.3-6.85-39.24-14.9C36,223.19,25.92,211.06,18.12,196.84c-8.23-15-13.22-31.05-16-47.85-.44-2.68-1.27-6-1.55-9.05,6.47,0,12-.12,17.57.14.67,0,2.45,2.57,2.55,3.7A89,89,0,0,0,30.51,178c14.24,26.64,36.11,43.21,66,48.8.47.09.92.29,1.39.39,2.31.51,6.41.14,7.3,1.55C106.45,230.71,105.84,233.89,105.89,236.53Z"/><path id="Path_11" data-name="Path 11" class="cls-5" d="M105.91,193.46v23.08c-5.93-1.31-11.65-2.07-17-3.86A80.57,80.57,0,0,1,58.81,195a83.43,83.43,0,0,1-19.07-26.24A75.82,75.82,0,0,1,32.82,144c-.28-2.74.16-4,3.32-3.86,5.45.23,0,.13,16.36,0,2.32-.08,3.13.7,3.41,3,2,16.51,10.23,28.88,23.3,38.83a59.31,59.31,0,0,0,12.62,7C96.21,190.83,100.94,191.91,105.91,193.46Z"/><path id="Path_12" data-name="Path 12" class="cls-5" d="M105.91,139.91v41.88c-18.62-.82-38.8-21-39.19-41.88Z"/></g></g></g></svg>