<svg id="Group_30" data-name="Group 30" xmlns="http://www.w3.org/2000/svg" width="250.971" height="98.206" viewBox="0 0 250.971 98.206">
  <g id="Rectangle_24" data-name="Rectangle 24" fill="rgba(58,68,148,0.78)" stroke="#707070" stroke-width="1">
    <rect width="250.971" height="98.206" rx="10" stroke="none"/>
    <rect x="0.5" y="0.5" width="249.971" height="97.206" rx="9.5" fill="none"/>
  </g>
  <g id="Group_29" data-name="Group 29" transform="translate(21.251 22.286)">
    <rect id="Rectangle_5" data-name="Rectangle 5" width="45.583" height="27.133" transform="translate(9.768 0)" fill="rgba(255,255,255,0.84)"/>
    <path id="Rectangle_7" data-name="Rectangle 7" d="M0,0H30.389a0,0,0,0,1,0,0V33.1a0,0,0,0,1,0,0h0A30.389,30.389,0,0,1,0,2.713V0A0,0,0,0,1,0,0Z" transform="translate(0 31.474)" fill="rgba(255,255,255,0.84)"/>
    <rect id="Rectangle_6" data-name="Rectangle 6" width="18.45" height="21.706" rx="9.225" transform="translate(37.443 34.187)" fill="rgba(255,255,255,0.84)"/>
  </g>
  <g id="Group_27" data-name="Group 27" transform="translate(97.324 18.189)">
    <path id="Path_13" data-name="Path 13" d="M805.066,379.814q-2.981,0-5.962,0h5.962c.252,0,.506,0,.757.007C805.569,379.819,805.317,379.814,805.066,379.814Zm-83.608,32.4q1.126,0,2.249,0,4.537,0,9.074,0Z" transform="translate(-711.588 -369.894)" fill="#fff"/>
    <path id="Path_14" data-name="Path 14" d="M701.394,430.965c.014-.717-.278-.762-.819-.722-.506.036-1.033-.169-1,.748.074,2.132,0,4.271.031,6.406.009.632-.181.822-.8.776a16.32,16.32,0,0,0-2.31,0c-.534.033-.658-.173-.648-.658.021-1.275-.029-2.552.021-3.825.022-.562-.147-.8-.684-.688-.451.095-1.225-.373-1.194.653.029,1.068.021,2.137.029,3.205.009,1.56.081,1.289-1.251,1.3-1.842.017-1.816,0-1.918-1.869-.074-1.311-.356-2.635-1.724-3.153a3.783,3.783,0,0,0-4.115.769c-.339.313-.655.653-1.135,1.13,0-1.527-.05-2.832.019-4.131.04-.807-.449-.674-.9-.658s-1.028-.223-1,.662c.059,1.629.035,3.262.012,4.9-.01.76.337,1.757-.152,2.222s-1.47.066-2.229.15c-.655.069-.8-.207-.784-.807.04-1.213-.026-2.433.029-3.647.026-.636-.254-.8-.783-.729-.456.06-1.128-.256-1.09.691.05,1.275-.01,2.552.021,3.827.012.5-.135.679-.648.658-.919-.038-1.843-.045-2.759,0-.617.029-.753-.235-.738-.788.029-1.216-.017-2.433.017-3.649.014-.551-.09-.833-.724-.731-.506.081-1.189-.216-1.061.776a10.412,10.412,0,0,1,0,1.866c-.043.822.373,1.942-.171,2.377-.513.411-1.591.081-2.415.147-.705.057-.84-.245-.817-.876.045-1.185.012-2.374.01-3.561,0-.287.066-.587-.408-.612a17.049,17.049,0,0,0-3.716,0,2.42,2.42,0,0,0-2.146,2.156,5.791,5.791,0,0,0,.012,2.206c.1.484-.019.719-.57.691a19.437,19.437,0,0,0-2.137,0c-.506.028-.679-.133-.667-.643.028-1.247-.012-2.493.017-3.737.009-.515-.019-.876-.689-.8-.546.062-1.223-.209-1.175.793.054,1.213-.01,2.434.036,3.647.019.534-.121.76-.679.734a20.615,20.615,0,0,0-2.135.009c-.563.033-.705-.2-.693-.722.029-1.246-.024-2.493.017-3.737.016-.525-.109-.774-.66-.774-1.3,0-2.612-.076-3.913-.007a2.327,2.327,0,0,0-2.4,2.524c-.019.411.012.821-.012,1.23-.126,2.125.961,3.167,3.291,3.167q25.769-.007,51.537.012c.677,0,.755-.245.751-.81C701.349,436.364,701.334,433.662,701.394,430.965Zm-52.382,7.161c-1-.107-1.346-.465-1.408-1.455-.088-1.408.154-1.809,1.23-2.047,1.838-.4,2.172-.133,2.168,1.762C651,438.337,651,438.337,649.011,438.126Zm16.938-1.691c0,.268,0,.5-.019.7,0,.033,0,.067-.007.1,0,.064-.01.124-.019.181a.789.789,0,0,1-.012.083,1.307,1.307,0,0,1-.028.152c-.01.038-.019.074-.031.107a.73.73,0,0,1-.031.086.768.768,0,0,1-.052.107.8.8,0,0,1-.048.071.675.675,0,0,1-.052.059.56.56,0,0,1-.081.069c-.031.019-.062.036-.1.052h0a.706.706,0,0,1-.107.04,4.091,4.091,0,0,1-1.524-.059.525.525,0,0,1-.444-.226,4.509,4.509,0,0,1,.09-2.766c.577-.722,1.4-.451,2.139-.491.292-.014.323.188.323.413Zm21.2,1.738h-.71q-.8,0-1.6,0c-1.111,0-1.106,0-.586-1.023a5.162,5.162,0,0,1,1.992-2.312,1.674,1.674,0,0,1,2.574.9,2.051,2.051,0,0,1,.081.252C689.361,437.981,689.2,438.175,687.151,438.173Z" transform="translate(-645.78 -413.738)" fill="#fff"/>
    <path id="Path_15" data-name="Path 15" d="M1416.243,428.8c.014-.75-.3-.826-.883-.779-.506.04-1.063-.171-1.023.741.071,1.629.021,3.262.024,4.893,0,2.338,0,2.312-2.374,2.31-.625,0-.732-.226-.727-.769.024-2.137-.04-4.276.031-6.408.029-.9-.468-.743-1-.764-.561-.021-.926-.012-.9.764.062,2.163.01,4.331.038,6.5.007.5-.126.693-.639.674-.831-.028-1.662-.024-2.493,0-.468.014-.605-.15-.591-.62.038-1.306,0-2.612.031-3.915.026-.893-.608-.6-1.047-.636s-.89-.1-.862.634c.052,1.3,0,2.609.035,3.915.012.461-.128.636-.6.62-.8-.026-1.6-.043-2.4,0-.6.036-.852-.126-.817-.774a8.7,8.7,0,0,0-.1-1.862,2.536,2.536,0,0,0-2.479-2.341,16.758,16.758,0,0,0-1.956-.007c-.567.024-.8-.1-.437-.672a9.6,9.6,0,0,0,.743-1.311c.115-.263.753-.537.078-.9-.5-.261-.94-.781-1.484,0a26.424,26.424,0,0,0-1.586,2.557,1.131,1.131,0,0,0,.121,1.427,1.2,1.2,0,0,0,1.154.586c.678-.047,1.363-.012,2.046-.012,1.653,0,1.957.283,2.059,1.921.014.237,0,.477.029.712.069.515-.157.672-.651.67-2.255-.017-4.511-.026-6.764.007-.626.007-.743-.259-.731-.8.024-1.216,0-2.431.009-3.649.005-.4.079-.845-.538-.722-.475.1-1.292-.432-1.3.641,0,1.244-.064,2.493,0,3.735.04.677-.195.814-.788.786a18.262,18.262,0,0,0-2.222.007c-.617.043-.745-.214-.731-.767.038-1.244.009-2.49.026-3.737.007-.418-.115-.677-.563-.736a15.612,15.612,0,0,0-3.276-.19,2.288,2.288,0,0,0-2.222,1.712,6.434,6.434,0,0,0-.194,1.223c-.34,3.041.752,4.414,3.547,4.186.857-.069,1.038.316.655,1.118a.95.95,0,0,1-1.023.537,14.162,14.162,0,0,1-1.674-.183c-.387-.064-.5.038-.549.437-.116.883.117,1.254,1.1,1.4,2.372.339,3.666-.363,4.043-2.562.114-.66.342-.771.943-.769,4.983.024,9.969.014,14.952.014v0c5.015,0,10.029-.012,15.043.014.656,0,.919-.1.9-.85Q1416.166,432.809,1416.243,428.8Zm-34.155,7.153c-1.344.04-1.89-.311-1.995-1.334a3.65,3.65,0,0,1,.126-1.491,1.9,1.9,0,0,1,2.327-.831c.178.128.129.313.131.482.007.444,0,.888,0,1.33a1.455,1.455,0,0,1-.009.529C1382.485,435.084,1383.2,435.924,1382.088,435.957Z" transform="translate(-1282.71 -411.527)" fill="#fff"/>
    <path id="Path_16" data-name="Path 16" d="M1400.227,679.589c.017-.812-.418-.753-.942-.743-.5.012-.978-.107-.95.727.062,1.807.012,3.618.009,5.427,0,1.914,0,1.914-1.94,1.835-1.028-.043-1.28-.3-1.292-1.351,0-.385.008-.771,0-1.156a2.464,2.464,0,0,0-2.386-2.771,6.527,6.527,0,0,0-2.127,0c-1.937.392-1.51.055-1.926,1.923a12.1,12.1,0,0,0-.159,1.671c-.045.539.349,1.265-.038,1.562-.361.278-1.075.142-1.631.116a7.771,7.771,0,0,1-2.847-.216,7.092,7.092,0,0,1,.605-.639,3.562,3.562,0,0,0,1.265-2.9.761.761,0,0,0-.491-.817,7.282,7.282,0,0,0-6.572,0c-.235.112-.437.223-.454.572a3.439,3.439,0,0,0,.936,2.849c.292.28.56.589.885.933a8.007,8.007,0,0,1-2.961.216c-1.277.026-1.156.18-1.158-1.106,0-2.018-.031-4.036.019-6.052.019-.708-.233-.862-.869-.817-.536.036-1.023-.123-1,.765.062,2.1-.019,4.212.007,6.318.009.665-.126,1-.871.914a7.832,7.832,0,0,0-1.6,0c-.684.062-.954-.142-.917-.881.062-1.213-.014-2.433.026-3.647.017-.494-.168-.708-.612-.755a16.142,16.142,0,0,0-3.1-.211,2.4,2.4,0,0,0-2.45,2.218,7.315,7.315,0,0,0-.1.791c-.183,2.251.195,4.394,3.455,4.079.031,0,.059,0,.09,0,.853.007,1.028.271.715,1.064a1.117,1.117,0,0,1-1.292.674c-.441-.033-.881-.112-1.325-.135-.216-.014-.612-.3-.61.171s-.318,1.111.183,1.391a3.274,3.274,0,0,0,4.917-2.471c.1-.563.28-.715.836-.71,2.55.031,5.1,0,7.655.024.992.012,1.927-.418,2.844-.451.933-.033,1.9.494,2.927.451,3.452-.14,6.906.069,10.366-.119a28.207,28.207,0,0,1,4.043.114c.6.055.826-.109.819-.76C1400.18,684.988,1400.173,682.287,1400.227,679.589Zm-31.636,7.249a1.8,1.8,0,0,1-2.073-.9,3.594,3.594,0,0,1,.019-2.016,1.863,1.863,0,0,1,2.272-.812c.249.131.176.347.183.537.012.444,0,.888,0,1.33h0a2.7,2.7,0,0,1-.01.707C1368.871,686.076,1369.345,686.688,1368.591,686.838Zm13.4-.99c-.577-.021-1.66-1.382-1.769-1.982-.062-.33.1-.427.354-.48s.487-.1.734-.142l.734-.138c.233.038.465.074.7.112.449.076,1.1-.026,1.254.408.166.456-.266.94-.605,1.3C1383,685.333,1382.61,685.874,1381.991,685.848Zm9.893,1c-1.548,0-1.551,0-1.591-1.562,0-.176,0-.354,0-.532.028-1.406.128-1.541,1.147-1.56,1.306-.026,1.852.446,1.9,1.652.007.178,0,.356,0,.532C1393.352,687.023,1393.553,686.821,1391.884,686.845Z" transform="translate(-1270.811 -629.923)" fill="#fff"/>
    <path id="Path_17" data-name="Path 17" d="M953.328,555.7c.012-.919-.651-.544-1.059-.605-.432-.062-.824-.024-.788.622.047.829.017,1.66.017,2.491,0,2.042,0,2.042-2.07,2.052-1.721.009-1.721.009-1.781-1.745-.074-2.182-1.04-3.134-3.146-3.15-.67-.007-1.7.294-1.923-.14-.307-.615.558-1.246.845-1.906.121-.275.664-.553.1-.852-.434-.228-.857-.833-1.436-.107a27.076,27.076,0,0,0-1.615,2.536,1.2,1.2,0,0,0,.211,1.688,1.062,1.062,0,0,0,.914.4c.772-.021,1.543-.009,2.315-.007,1.472,0,1.88.411,1.9,1.9,0,.266-.022.534,0,.8.041.461-.135.608-.608.6-2.284-.026-4.568-.033-6.849,0-.582.007-.689-.226-.679-.731.019-1.244-.043-2.49,0-3.734.024-.636-.235-.784-.781-.7-.461.071-1.159-.261-1.073.693.045.529.019,1.066.012,1.6-.014.914.309,2.132-.152,2.661-.532.605-1.785.1-2.714.207-.71.083-.838-.223-.819-.853.038-1.213-.035-2.431.007-3.647.019-.482-.2-.658-.577-.7a16.262,16.262,0,0,0-3.274-.206,2.265,2.265,0,0,0-2.213,1.724,6.931,6.931,0,0,0-.078,3.5,2.312,2.312,0,0,0,2.362,1.866c.325.01.653-.019.978.012.3.026.722-.176.871.223a1.326,1.326,0,0,1-.223,1.092.869.869,0,0,1-.86.358c-.532-.012-1.064-.062-1.6-.09-.245-.014-.667-.33-.625.23.036.456-.354,1.208.252,1.332,2.336.477,4.292.631,4.839-2.455.107-.617.4-.712.957-.71,3.262.024,6.524.012,9.786.014q4.94,0,9.877,0c.4,0,.739.064.722-.563C953.3,559.5,953.3,557.6,953.328,555.7Zm-23.768,4.575c-1.356-.052-1.814-.337-1.85-1.443a3.826,3.826,0,0,1,.131-1.4,2.02,2.02,0,0,1,2.341-.826c.183.121.133.311.135.482,0,.442,0,.883,0,1.327h0a2.056,2.056,0,0,1-.007.527C930.177,559.441,930.787,560.32,929.56,560.275Z" transform="translate(-889.3 -519.633)" fill="#fff"/>
    <path id="Path_18" data-name="Path 18" d="M1418.425,557.932c.01-.847-.58-.551-.992-.582-.444-.033-.89-.107-.862.627.047,1.273-.014,2.55.019,3.825.014.522-.1.765-.677.72a13.021,13.021,0,0,0-1.778-.007c-.532.031-.748-.128-.707-.7a7.116,7.116,0,0,0-.221-2.469,2.555,2.555,0,0,0-2.092-2.047,3.784,3.784,0,0,0-3.393.876c-.373.366-.7.776-1.049,1.166-.085-.052-.174-.107-.259-.161a8.222,8.222,0,0,1,.01-1.135c.09-.643-.209-.76-.762-.7-.491.052-1.106-.23-1.054.714.066,1.242,0,2.488.031,3.735.012.522-.121.729-.688.717-1.75-.036-3.5-.04-5.25,0-.572.012-.691-.183-.684-.708.026-2.135-.012-4.271.026-6.406.012-.632-.178-.843-.8-.788-.542.047-1.092-.142-1.073.791.057,2.726.033,5.454.007,8.182,0,.529.183.632.665.632q10.5-.021,21,0c.454,0,.62-.112.613-.591C1418.417,561.729,1418.4,559.829,1418.425,557.932Zm-8.488,4.58h-.978c-.653,0-1.306-.017-1.959,0-.51.017-.679-.23-.482-.65a5.187,5.187,0,0,1,2.517-2.764,1.647,1.647,0,0,1,2.407,1.2c.009.028.014.057.021.085C1411.96,562.127,1411.682,562.512,1409.937,562.512Z" transform="translate(-1298.304 -521.889)" fill="#fff"/>
    <path id="Path_19" data-name="Path 19" d="M1307.916,326.708c-.145-.971-.764-.589-1.239-.615-.622-.033-.537.47-.473.821a34.463,34.463,0,0,1,.153,3.64c.055.71-.33.681-.8.653s-.952.052-.886-.731c.088-1.03.047-2.075.053-3.113,0-.249.073-.518-.323-.613-1.142-.275-1.555.021-1.557,1.18,0,.563.028,1.128.012,1.69a3.515,3.515,0,0,1-.138.959c-.19.6-.71.665-1.23.62-.61-.057-.3-.556-.313-.831a21.079,21.079,0,0,1,.007-2.847c.078-.871-.422-.745-.976-.783-.66-.045-.888.142-.843.831.066.976-.007,1.959.031,2.937.019.51-.071.727-.662.712-1.9-.043-3.8-.038-5.7-.007-.517.007-.643-.157-.631-.646.031-1.247-.024-2.493.028-3.737.026-.646-.216-.826-.812-.822-.739.007-1.479-.112-2.215-.085-2.5.093-3.842.131-4.012,2.818-.2,3.151.6,4.229,3.718,4.21h6.318c.252,0,.506,0,.757.007.641.012,1.279.026,1.914-.019,1.87-.14,3.789.4,5.62-.375a.467.467,0,0,1,.342.036c1.152.586,2.391.252,3.585.356.461.038.541-.168.534-.57A44.081,44.081,0,0,0,1307.916,326.708Zm-19.174,4.49c-1.031-.057-1.434-.437-1.534-1.446-.123-1.237.24-1.849,1.239-2.092.028-.007.055-.021.083-.028,1.755-.349,2.054-.083,2.054,1.828C1290.582,331.3,1290.582,331.3,1288.742,331.2Z" transform="translate(-1201.951 -323.027)" fill="#fff"/>
    <path id="Path_20" data-name="Path 20" d="M683.535,563.693c.012.584-.349.5-.7.5q-4.537,0-9.074,0-1.122,0-2.249,0c-2.246,0-4.492,0-6.74.017-.572,0-.755-.128-.748-.727.033-2.7.038-5.4,0-8.1-.01-.731.311-.822.912-.8.558.026,1.014-.057.99.793-.059,2.135,0,4.271-.031,6.406-.007.539.119.719.679.71,1.778-.029,3.559-.021,5.337,0,.56.009.781-.121.753-.743-.055-1.242.031-2.49-.021-3.735-.045-1.03.681-.612,1.147-.693.619-.1.729.214.712.764-.04,1.244,0,2.491-.028,3.737-.012.494.14.674.653.667q2.981-.036,5.962,0c.47,0,.624-.147.6-.613-.036-.679-.014-1.363-.012-2.047.005-.7-.356-1.023-1.047-1.014-.8.014-1.6.007-2.4.029-.361.012-.586-.083-.532-.489.04-.3-.209-.667.389-.8a12.43,12.43,0,0,1,3.787-.29,1.747,1.747,0,0,1,1.648,1.79C683.566,560.606,683.509,562.152,683.535,563.693Z" transform="translate(-661.642 -521.871)" fill="#fff"/>
    <path id="Path_21" data-name="Path 21" d="M1541.406,330.909c-.061-.945.01-1.9-.023-2.844-.067-1.966-.734-2.98-2.213-3.134a11.27,11.27,0,0,0-3.091.086,1.187,1.187,0,0,0-1.1,1.13,8.824,8.824,0,0,0-.169,3.174c.112.658-.114.8-.729.781-1.688-.038-3.381-.052-5.069,0-.812.028-1.1-.138-1.1-1.047.009-3.248-1.885-4.867-4.889-4.314-.466.086-.764.254-.646.81.093.439.1.831.769.779,2.289-.183,2.984,1.382,2.972,3.153,0,.449-.112.629-.594.613-1.007-.033-2.018.024-3.022-.024-.643-.031-.836.207-.781.817.045.537-.055.988.807.969,3.022-.067,6.049-.026,9.072-.026v0c2.966,0,5.931-.029,8.9.021C1541.269,331.863,1541.452,331.623,1541.406,330.909Zm-2.293-.831c-.323-.017-.65,0-.976,0-1.61.029-1.61.029-1.6-1.636a2.626,2.626,0,0,1,.01-.532c.114-.57-.2-1.377.854-1.429,1.289-.062,1.935.3,2.073,1.36.081.608.055,1.232.078,1.847C1539.566,330,1539.4,330.09,1539.113,330.078Z" transform="translate(-1407.477 -321.913)" fill="#fff"/>
    <path id="Path_22" data-name="Path 22" d="M1159.718,439.427c.014.548-.37.427-.672.427q-3.693.011-7.386,0v-.007c-2.434,0-4.865-.019-7.3.014-.579.007-.753-.164-.75-.734.017-2.759.021-5.518-.028-8.274-.012-.753.432-.624.854-.605.449.021,1.037-.237,1.019.648-.043,2.134.014,4.271-.038,6.406-.019.722.214.926.893.862a9.668,9.668,0,0,1,1.778,0c.648.059.8-.209.781-.807-.038-1.244.041-2.493-.033-3.735-.036-.591.209-.7.643-.613s1.161-.411,1.147.589c-.019,1.275.033,2.552-.01,3.825-.021.61.2.748.765.741q2.892-.039,5.786,0c.537.007.746-.138.7-.7-.052-.62.014-1.246-.019-1.869-.043-.765-.4-1.187-1.249-1.121-.739.055-1.482.017-2.222.033-.337.01-.606-.036-.556-.468.036-.316-.164-.7.387-.831a10.846,10.846,0,0,1,3.963-.247,1.575,1.575,0,0,1,1.443,1.567C1159.672,436.169,1159.677,437.8,1159.718,439.427Z" transform="translate(-1078.659 -413.738)" fill="#fff"/>
    <path id="Path_23" data-name="Path 23" d="M835.3,554.623c-.456.028-1.033-.223-1,.665.059,1.538.04,3.082.012,4.622-.016.85.392,2.04-.164,2.455-.577.432-1.7.1-2.585.154-.527.033-.66-.178-.651-.662.021-1.275-.014-2.55.014-3.825.007-.423-.078-.7-.527-.738a17.676,17.676,0,0,0-3.186-.19,2.326,2.326,0,0,0-2.384,2.061,7.378,7.378,0,0,0-.083,2.911,2.386,2.386,0,0,0,2.6,2.132c.416,0,.831,0,1.244,0,.207,0,.406,0,.465.282a1.109,1.109,0,0,1-1.023,1.375,10.358,10.358,0,0,1-1.33-.062c-1.066-.071-1.028-.05-1.061,1-.024.76.511.582.883.658,2.652.539,3.715-.116,4.309-2.69.1-.434.256-.584.7-.577,1.273.026,2.552-.043,3.822.028.712.04.836-.214.812-.845-.045-1.3-.012-2.607-.012-3.913h.017c0-1.394-.045-2.787.017-4.179C836.224,554.509,835.771,554.595,835.3,554.623Zm-6.788,7.9c-1.379.033-1.873-.249-1.99-1.3a4.365,4.365,0,0,1,.028-1.057,1.69,1.69,0,0,1,2.389-1.306c.221.1.2.266.2.43.009.47,0,.943,0,1.415h0a1.558,1.558,0,0,1-.01.527C828.964,561.672,829.614,562.5,828.508,562.522Z" transform="translate(-801.313 -521.89)" fill="#fff"/>
    <path id="Path_24" data-name="Path 24" d="M1288.11,430.228c-.4.021-.983-.283-.954.586.052,1.572.035,3.146.01,4.718-.014.852.385,2.054-.161,2.467-.57.43-1.7.093-2.591.14-.517.028-.662-.171-.65-.662.028-1.275,0-2.552.019-3.827,0-.361-.023-.66-.451-.722a13.582,13.582,0,0,0-3.628-.183,2.189,2.189,0,0,0-1.99,1.755,7.731,7.731,0,0,0-.145,3.179,2.372,2.372,0,0,0,2.263,2.123c.382.036.774-.014,1.154.031.292.033.719-.214.848.19a1.365,1.365,0,0,1-.188,1.107.814.814,0,0,1-.769.351,4.444,4.444,0,0,1-1.415-.081c-.975-.332-.973.2-1,.9-.036.957.705.708,1.171.8,2.426.463,3.621-.34,4.041-2.733.083-.465.252-.563.677-.556,1.306.024,2.614-.028,3.917.024.615.024.717-.18.7-.745-.05-1.334-.016-2.671-.016-4.005h0c0-1.425-.04-2.849.017-4.271C1289,430.038,1288.511,430.206,1288.11,430.228Zm-6.686,7.923c-1.216.123-1.93-.242-2.065-1.14a4.819,4.819,0,0,1,0-1.32,1.691,1.691,0,0,1,2.369-1.23c.266.128.2.325.2.518.009.442,0,.886,0,1.327h-.007a2.314,2.314,0,0,1-.01.617C1281.8,437.346,1282.366,438.055,1281.424,438.151Z" transform="translate(-1195.083 -413.703)" fill="#fff"/>
    <path id="Path_25" data-name="Path 25" d="M1590.5,563.482c0,.551-.214.62-.677.613-1.75-.022-3.5-.007-5.247-.007s-3.5-.021-5.245.012c-.542.009-.777-.131-.679-.688.074-.437-.228-1.149.65-1.019,1,.147,1.149-.323,1.1-1.187-.069-1.3.019-2.607-.033-3.91-.026-.689.1-1.007.89-.992.729.009.959.2.928.947-.062,1.479.029,2.965-.031,4.444-.038.943.6.651,1.066.7.549.059.864-.055.848-.753-.052-2.042.012-4.088-.043-6.132-.021-.791.178-1.033,1.011-1.047.964-.019.855.508.852,1.116-.009,2.044.022,4.088-.016,6.133-.01.572.183.684.7.688,2.053.012,2.053.029,2.053-2,0-1.719.029-3.438-.019-5.157-.016-.677.264-.812.841-.753.489.052,1.066-.2,1.05.722C1590.461,557.969,1590.475,560.725,1590.5,563.482Z" transform="translate(-1456.973 -521.767)" fill="#fff"/>
    <path id="Path_26" data-name="Path 26" d="M1276.351,683.521a2.239,2.239,0,0,0-1.785-1.864,7.7,7.7,0,0,0-3.768.1.754.754,0,0,0-.62.653,9.479,9.479,0,0,0-.254,3.775c.1.513-.055.644-.518.636-.681-.012-1.365-.036-2.044.009-.632.043-.815-.195-.8-.814.031-2.132-.022-4.269.023-6.4.017-.734-.3-.812-.9-.793-.579.021-1-.014-.988.812.048,2.7.038,5.394,0,8.091-.009.634.233.715.77.705,1.69-.031,3.381-.012,5.071-.01,1.779,0,3.557,0,5.335,0,.271,0,.638.119.629-.378A27.208,27.208,0,0,0,1276.351,683.521Zm-3.113,3.3c-1.641,0-1.641,0-1.65-1.662,0-.178.01-.354.024-.532.121-1.384.216-1.493,1.272-1.465,1.241.036,1.709.477,1.771,1.683.009.176.007.354.009.529C1274.675,686.826,1274.675,686.826,1273.238,686.826Z" transform="translate(-1183.977 -629.907)" fill="#fff"/>
    <path id="Path_27" data-name="Path 27" d="M1166.251,326.279q4.716-.043,9.428-.09c.347,0,.784.164.764-.51a3.983,3.983,0,0,0-4-4.034c-1.512-.031-3.027-.021-4.54,0a3.937,3.937,0,0,0-4.008,4.157,4.016,4.016,0,0,0,4.074,4.126c1.512.007,3.025.012,4.537,0a3.723,3.723,0,0,0,3.671-2.794c-.693-.126-1.28-.169-1.707.617a1.978,1.978,0,0,1-1.819.921c-1.631.021-3.262.033-4.893,0a2.316,2.316,0,0,1-2.17-1.291C1165.109,326.422,1165.188,326.289,1166.251,326.279Zm-.672-1.975a2.714,2.714,0,0,1,2.524-1.493q2.083-.028,4.167,0a2.7,2.7,0,0,1,2.488,1.536c.287.544.22.793-.472.776-.983-.021-1.971-.017-2.956-.012l-1.211,0c-.8,0-1.6-.009-2.405-.009-.558,0-1.116,0-1.674.024C1165.237,325.156,1165.29,324.843,1165.579,324.3Z" transform="translate(-1096.328 -319.294)" fill="#fff"/>
    <path id="Path_28" data-name="Path 28" d="M1154.837,577.572c0-1.009-.012-2.018,0-3.025.007-.406-.078-.7-.539-.75a15.394,15.394,0,0,0-3.272-.2,2.258,2.258,0,0,0-2.286,1.859,7.29,7.29,0,0,0-.193,2.73c.264,1.795,1.095,2.5,2.916,2.507.328,0,.653,0,.98.01.247.007.449.043.489.375a1.087,1.087,0,0,1-1.012,1.287,9.915,9.915,0,0,1-1.242-.064c-1.156-.081-1.175-.019-1.106,1.125.047.788.665.475.992.546,2.574.546,3.811-.339,4.188-2.932A26.807,26.807,0,0,0,1154.837,577.572Zm-2.6,1.427c-1.361-.043-1.807-.333-1.84-1.456a4.973,4.973,0,0,1,.1-1.14,1.74,1.74,0,0,1,2.32-1.056c.2.1.178.283.178.456,0,.472,0,.945,0,1.417h.012a1.707,1.707,0,0,1-.007.442C1152.862,578.165,1153.446,579.039,1152.242,579Z" transform="translate(-1082.931 -538.371)" fill="#fff"/>
    <path id="Path_29" data-name="Path 29" d="M1075.583,327.153a2.394,2.394,0,0,1-2.578,2.685c-1.216-.028-2.514.34-3.592-.572-.195-.166-.313-.024-.458.069-1.37.876-2.866.615-4.3.34-1.213-.233-1.539-1.337-1.586-2.4-.073-1.688-.014-3.381-.024-5.071,0-.423.107-.665.6-.662s.682.192.672.691c-.021,1.484-.017,2.965,0,4.449.012,1.569.392,1.947,1.923,1.949,2.066,0,2.391-.309,2.422-2.4.019-1.334.01-2.669-.01-4-.007-.416.055-.672.558-.684s.67.192.663.684c-.023,1.453-.019,2.906-.01,4.359.012,1.669.4,2.054,2.025,2.051,2.241,0,2.476-.23,2.486-2.469.007-1.306.014-2.612-.012-3.915-.01-.482.116-.674.641-.7.6-.026.592.285.582.71-.021.831-.007,1.662-.007,2.491h0C1075.578,325.553,1075.566,326.353,1075.583,327.153Z" transform="translate(-1008.616 -319.218)" fill="#fff"/>
    <path id="Path_30" data-name="Path 30" d="M1332.036,559.435c0,1.365-.021,2.728.012,4.091.009.508-.071.726-.665.712q-2.977-.061-5.957,0c-.634.014-.677-.287-.622-.748.05-.416-.218-1.087.608-.957,1.057.164,1.2-.351,1.149-1.244-.071-1.389,0-2.785-.033-4.176-.026-.992.7-.532,1.125-.627.477-.107.774.021.76.629-.033,1.569.036,3.143-.024,4.713-.029.758.389.712.881.7s.987.135.968-.71c-.052-2.161.033-4.326-.017-6.486-.024-.952.594-.634,1.059-.693.546-.069.805.076.781.71-.047,1.36-.014,2.726-.014,4.088Z" transform="translate(-1236.232 -521.903)" fill="#fff"/>
    <path id="Path_31" data-name="Path 31" d="M1247.25,581.733c.007.522-.171.646-.66.632-1.064-.033-2.13-.01-3.336-.01a23.737,23.737,0,0,1-3.839-.168,2.318,2.318,0,0,1-2.023-2.745,15.749,15.749,0,0,1,.259-1.662.97.97,0,0,1,1.412-.757c.3.1.23.292.214.487-.05.56-.116,1.118-.161,1.678a1.165,1.165,0,0,0,1.178,1.372c1.564.088,3.136.055,4.7.081.5.009.378-.356.378-.622.012-1.273.048-2.547-.014-3.818-.033-.727.342-.755.871-.729s1.062-.135,1.031.757C1247.2,578.062,1247.222,579.9,1247.25,581.733Z" transform="translate(-1160.221 -540.03)" fill="#fff"/>
    <path id="Path_32" data-name="Path 32" d="M1183.665,706.6c.007.472-.133.615-.6.6-1.1-.031-2.194-.01-3.535-.01a21.72,21.72,0,0,1-3.732-.145,2.315,2.315,0,0,1-1.975-2.773c.047-.527.142-1.054.235-1.576.145-.829.537-1.035,1.346-.814.365.1.275.335.261.546-.038.53-.126,1.057-.161,1.588a1.241,1.241,0,0,0,1.147,1.42,29.808,29.808,0,0,0,4.7.155c.51.019.451-.349.453-.67.01-1.275.055-2.55.012-3.82-.035-1.04.707-.572,1.159-.665.522-.109.712.083.7.655C1183.632,702.927,1183.641,704.765,1183.665,706.6Z" transform="translate(-1104.941 -648.677)" fill="#fff"/>
    <path id="Path_33" data-name="Path 33" d="M1481.614,327.478c-.041,1.066-.012,2.134-.012,3.2h0c0,1.156.036,2.312-.007,3.466-.069,1.84-1.011,2.806-2.557,2.726-.4-.019-.76-.076-.636-.572.1-.4-.425-1.061.47-1.171.857-.1.942-.786.95-1.453.016-2.075.052-4.15-.012-6.223-.024-.812.316-.857.973-.9C1481.569,326.5,1481.637,326.849,1481.614,327.478Z" transform="translate(-1369.753 -323.575)" fill="#fff"/>
    <path id="Path_34" data-name="Path 34" d="M1090.5,430.862c-.059,1.389-.017,2.78-.017,4.172s-.036,2.785.015,4.174c.028.831-.522.617-.948.61s-.952.237-.94-.6q.06-4.174-.007-8.348c-.014-.793.442-.677.9-.655C1089.948,430.235,1090.542,429.965,1090.5,430.862Z" transform="translate(-1030.852 -413.701)" fill="#fff"/>
    <path id="Path_35" data-name="Path 35" d="M1655.924,679.67c-.074,1.387-.019,2.778-.019,4.167,0,1.36-.024,2.721.011,4.081.012.5-.116.646-.626.643-1.228-.012-1.23.017-1.232-1.22,0-2.543.028-5.086-.021-7.628-.017-.8.416-.76.948-.745C1655.47,678.98,1655.971,678.823,1655.924,679.67Z" transform="translate(-1522.54 -630.028)" fill="#fff"/>
    <path id="Path_36" data-name="Path 36" d="M1003.878,554.081c-.938.057-.646-.563-.719-1.035-.116-.748.256-.838.9-.874.857-.045.824.432.75,1.035C1005.02,554.022,1004.536,554.041,1003.878,554.081Z" transform="translate(-956.532 -519.771)" fill="#fff"/>
    <path id="Path_37" data-name="Path 37" d="M1457.053,428.506c0,.639-.092.952-.852.945-.791,0-1-.309-.845-.978-.152-.715.095-.931.816-.95C1456.984,427.5,1457.058,427.843,1457.053,428.506Z" transform="translate(-1349.729 -411.381)" fill="#fff"/>
    <path id="Path_38" data-name="Path 38" d="M785.953,638.017c-.655-.01-.871-.154-.838-.831.031-.615-.007-1.047.855-1,.672.036,1.016.147.836.885C786.984,637.8,786.709,638.029,785.953,638.017Z" transform="translate(-766.94 -592.827)" fill="#fff"/>
    <path id="Path_39" data-name="Path 39" d="M1239.29,513.822c-.736.017-.85-.24-.867-.9-.017-.724.164-.948.912-.943.717,0,.985.2.819.907C1240.348,513.64,1240.011,513.808,1239.29,513.822Z" transform="translate(-1161.13 -484.821)" fill="#fff"/>
    <path id="Path_40" data-name="Path 40" d="M886.828,512.835c.145.651.007.957-.774.94-.708-.014-.99-.15-.947-.914.036-.608.038-.98.838-.931C886.617,511.973,887.059,512.023,886.828,512.835Z" transform="translate(-853.891 -484.776)" fill="#fff"/>
    <path id="Path_41" data-name="Path 41" d="M1303.039,304.7c.085.565.014.921-.743.924-.81,0-.717-.451-.729-.971s.021-.893.722-.893C1303.005,303.757,1303.16,304.08,1303.039,304.7Z" transform="translate(-1216.038 -303.755)" fill="#fff"/>
    <path id="Path_42" data-name="Path 42" d="M736.653,512.8c.086.639.017.98-.748.973-.745,0-.726-.361-.712-.881s-.112-.964.722-.931C736.637,512,736.805,512.242,736.653,512.8Z" transform="translate(-723.529 -484.81)" fill="#fff"/>
    <path id="Path_43" data-name="Path 43" d="M1193.457,513.718c-.679,0-.779-.285-.743-.84.034-.527-.095-1,.784-.978.841.024.681.491.684,1.009C1194.268,513.428,1194.147,513.718,1193.457,513.718Z" transform="translate(-1121.377 -484.752)" fill="#fff"/>
    <path id="Path_44" data-name="Path 44" d="M740.174,638.045c-.947.029-.622-.6-.7-1.049-.1-.622.173-.755.771-.788.841-.043.691.48.708,1.057C741.046,637.772,740.87,638.024,740.174,638.045Z" transform="translate(-727.242 -592.848)" fill="#fff"/>
    <path id="Path_45" data-name="Path 45" d="M1216.09,687.594c-.007.515.061.947-.732.935-.741-.012-.824-.342-.722-.829-.047-.594-.107-1.016.694-1.014C1216.092,686.689,1216.1,687.055,1216.09,687.594Z" transform="translate(-1140.416 -636.745)" fill="#fff"/>
    <path id="Path_46" data-name="Path 46" d="M1026.358,429.465c-.05.47.161,1.023-.7.995-.634-.021-.874-.219-.753-.8-.031-.546-.08-1,.727-.962C1026.237,428.727,1026.415,428.905,1026.358,429.465Z" transform="translate(-975.435 -412.4)" fill="#fff"/>
    <path id="Path_47" data-name="Path 47" d="M780.5,429.65c0,.522-.036.864-.738.883-.814.021-.75-.435-.722-.988-.138-.591.135-.748.748-.774C780.539,428.738,780.5,429.151,780.5,429.65Z" transform="translate(-761.632 -412.465)" fill="#fff"/>
    <path id="Path_48" data-name="Path 48" d="M1116.979,554.744c-.76-.007-.671-.463-.681-.933-.012-.5-.007-.857.722-.878.878-.026.655.506.686,1.073C1117.785,554.452,1117.675,554.754,1116.979,554.744Z" transform="translate(-1054.932 -520.434)" fill="#fff"/>
    <path id="Path_49" data-name="Path 49" d="M1569.552,429.589c.041.527.038.909-.7.9-.641-.012-.831-.219-.779-.812.041-.477-.119-.962.71-.947C1569.509,428.739,1569.625,429.033,1569.552,429.589Z" transform="translate(-1447.785 -412.428)" fill="#fff"/>
    <path id="Path_50" data-name="Path 50" d="M1319.211,304.651c.031.537.114,1.009-.705.988s-.648-.527-.684-1.011c-.041-.556.057-.848.736-.855C1319.318,303.765,1319.271,304.181,1319.211,304.651Z" transform="translate(-1230.169 -303.77)" fill="#fff"/>
    <path id="Path_51" data-name="Path 51" d="M1279.145,564.256c-.655-.012-.91-.195-.843-.857.05-.479-.13-.971.713-.959.729.01.848.292.764.746C1279.738,563.745,1279.969,564.275,1279.145,564.256Z" transform="translate(-1195.8 -528.702)" fill="#fff"/>
    <path id="Path_52" data-name="Path 52" d="M662.594,430.5c-.772.012-.691-.442-.674-.959-.064-.5.017-.8.715-.814.876-.024.646.534.691.985C663.38,430.249,663.219,430.488,662.594,430.5Z" transform="translate(-659.799 -412.425)" fill="#fff"/>
    <path id="Path_53" data-name="Path 53" d="M1547.1,554.673c-.734,0-.729-.4-.72-.909s-.031-.924.765-.916c.855,0,.684.5.7,1.04C1547.923,554.391,1547.788,554.678,1547.1,554.673Z" transform="translate(-1428.924 -520.361)" fill="#fff"/>
    <path id="Path_54" data-name="Path 54" d="M678.929,429.633c.109.591.012.924-.738.909-.871-.017-.577-.584-.653-1.03-.1-.634.192-.7.734-.727C678.99,428.749,679.052,429.091,678.929,429.633Z" transform="translate(-673.378 -412.477)" fill="#fff"/>
    <path id="Path_55" data-name="Path 55" d="M1562.931,554.713c-.831,0-.7-.477-.733-.976-.041-.556.047-.819.731-.841.86-.024.679.479.662.983C1563.679,554.371,1563.667,554.708,1562.931,554.713Z" transform="translate(-1442.672 -520.403)" fill="#fff"/>
    <path id="Path_56" data-name="Path 56" d="M1177.876,513.741c-.793.033-.762-.4-.707-.933-.062-.5-.064-.848.665-.879.907-.038.681.52.727,1C1178.61,513.459,1178.507,513.717,1177.876,513.741Z" transform="translate(-1107.844 -484.778)" fill="#fff"/>
    <path id="Path_57" data-name="Path 57" d="M1133.485,553.833c.074.52.064.874-.677.883-.807.012-.731-.43-.75-.952s.009-.853.724-.864C1133.58,552.888,1133.559,553.294,1133.485,553.833Z" transform="translate(-1068.636 -520.407)" fill="#fff"/>
    <path id="Path_58" data-name="Path 58" d="M721.039,512.9c0,.468.093.893-.682.89-.8,0-.745-.427-.7-.95-.062-.491-.081-.852.658-.867C721.124,511.955,721.043,512.4,721.039,512.9Z" transform="translate(-709.998 -484.818)" fill="#fff"/>
    <path id="Path_59" data-name="Path 59" d="M833.916,513.763c-.765.012-.755-.368-.755-.912s-.021-.909.753-.909c.833,0,.693.465.667.957C834.663,513.412,834.64,513.751,833.916,513.763Z" transform="translate(-808.722 -484.79)" fill="#fff"/>
    <path id="Path_60" data-name="Path 60" d="M850.111,513.761c-.819.01-.634-.487-.634-1-.035-.423-.1-.81.667-.821.838-.014.686.458.71.952C850.881,513.44,850.812,513.754,850.111,513.761Z" transform="translate(-822.895 -484.788)" fill="#fff"/>
    <path id="Path_61" data-name="Path 61" d="M1200.283,687.574c.043.529.114.954-.7.952s-.7-.465-.715-.952-.067-.879.684-.888S1200.361,687.033,1200.283,687.574Z" transform="translate(-1126.732 -636.745)" fill="#fff"/>
    <path id="Path_62" data-name="Path 62" d="M1264.3,563.29c.019.572.1,1-.672,1.009-.843.007-.681-.494-.717-.978-.04-.551.041-.84.739-.843C1264.432,562.476,1264.351,562.893,1264.3,563.29Z" transform="translate(-1182.419 -528.736)" fill="#fff"/>
    <path id="Path_63" data-name="Path 63" d="M724.523,638.031c-.772,0-.67-.423-.662-.891,0-.484-.143-.966.7-.954.8.01.76.415.7.961C725.369,637.718,725.262,638.026,724.523,638.031Z" transform="translate(-713.671 -592.831)" fill="#fff"/>
    <path id="Path_64" data-name="Path 64" d="M1009.763,430.5c-.682-.019-.947-.214-.75-.848-.124-.572-.1-.938.641-.893.532.033.864.085.738.717C1010.309,429.891,1010.689,430.525,1009.763,430.5Z" transform="translate(-961.585 -412.453)" fill="#fff"/>
    <path id="Path_65" data-name="Path 65" d="M796.43,429.5c0,.513.154,1.009-.648.99-.67-.016-.757-.3-.76-.867s.026-.907.779-.9C796.525,428.735,796.47,429.1,796.43,429.5Z" transform="translate(-775.558 -412.429)" fill="#fff"/>
    <path id="Path_66" data-name="Path 66" d="M1585.495,429.521c.024.582.14,1.045-.7,1.021-.869-.024-.62-.558-.675-1.011-.066-.546.077-.76.7-.765C1585.519,428.761,1585.628,429.043,1585.495,429.521Z" transform="translate(-1461.734 -412.462)" fill="#fff"/>
    <path id="Path_67" data-name="Path 67" d="M1196.753,348.327c-.4,0-.807,0-1.211,0-.8,0-1.605-.012-2.405-.012.8,0,1.6.012,2.405.01Z" transform="translate(-1121.751 -342.508)" fill="#fff"/>
  </g>
  <g id="Group_28" data-name="Group 28" transform="translate(19.667 11.659)">
    <path id="Path_8" data-name="Path 8" d="M219.922,321.505a7.223,7.223,0,0,0-.083-.766c-.638,0-1.219-.02-1.8,0-4.951.2-8.821-2.164-9.618-7.287a1.41,1.41,0,0,0-.755-.911A55.169,55.169,0,0,0,183,308.508a64.786,64.786,0,0,0-17.756,4.032,1.646,1.646,0,0,0-.831,1.078,8.172,8.172,0,0,1-8.236,7.074c-1.021.026-2.042,0-3.131,0v27.3c.286.024.466.054.644.054q32.578.007,65.156.031c.909,0,1.1-.308,1.1-1.144C219.915,338.458,219.927,329.982,219.922,321.505ZM178.478,336.19a12.233,12.233,0,0,0-.013,1.792c-.945-.558-1.719-.985-2.464-1.459-2.406-1.531-4.787-3.1-7.21-4.6a1.76,1.76,0,0,1-.823-1.506c-.232-1.677.5-2.558,1.91-3.36,2.6-1.485,5.074-3.188,7.6-4.795.235-.149.492-.263.98-.519,0,1.411.05,2.583-.034,3.745-.023.3-.419.644-.726.836-1.857,1.157-3.737,2.277-5.762,3.5a41.11,41.11,0,0,0,4.467,2.716C178.1,333.3,178.786,334.387,178.478,336.19Zm12.5-12.772c-2.336,6.149-4.686,12.293-7,18.451a1.1,1.1,0,0,1-1.277.857c-.9-.062-1.816-.015-2.922-.015.461-1.3.839-2.43,1.261-3.543,2.3-6.063,4.633-12.116,6.9-18.19a1.362,1.362,0,0,1,1.589-1.089c.83.071,1.67.016,2.737.016C191.8,321.192,191.4,322.31,190.978,323.419Zm12.176,8.6q-4.139,2.664-8.287,5.318c-.294.187-.622.323-1.131.584,0-1.37-.05-2.566.034-3.751.023-.3.424-.646.732-.841,1.639-1.029,3.308-2.014,4.964-3.019.209-.128.407-.276.735-.5-1.974-1.2-3.821-2.354-5.709-3.44a1.357,1.357,0,0,1-.784-1.4c.045-1,.013-2.013.013-3.331,1.544.974,2.826,1.781,4.107,2.591q2.639,1.673,5.277,3.345A2.8,2.8,0,0,1,203.154,332.024Z" transform="translate(-152.772 -308.353)" fill="#6e2381" stroke="#fff" stroke-width="0.5"/>
    <path id="Path_9" data-name="Path 9" d="M394.822,563.289c-3.519.031-7.04.013-10.559.013H363.19c-.033.461-.078.815-.078,1.169-.011,10.454,0,20.906-.047,31.359,0,1.026.294,1.385,1.3,1.255,1.377-.177,2.764-.261,4.143-.427a27,27,0,0,0,15.007-6.559c7.741-6.85,11.039-15.878,12.327-25.84C395.95,563.444,395.554,563.285,394.822,563.289Zm-16.748,24.139c-.125-.036-.25-.07-.375-.1v-7.162h-7.043l6.795-12.513.373.109v7.066h7.069C382.518,579.213,380.3,583.32,378.073,587.428Z" transform="translate(-328.701 -521.907)" fill="#3a4494" stroke="#fff" stroke-width="0.5"/>
    <path id="Path_10" data-name="Path 10" d="M183.733,597.964c.021,1.13,0,3.613,0,3.613s-3.594-.121-5.2-.376a29.046,29.046,0,0,1-11.877-4.508,29.965,29.965,0,0,1-9.5-10.744,45.225,45.225,0,0,1-4.847-14.484c-.135-.813-.386-1.828-.471-2.742,1.958,0,3.641-.034,5.318.044.2.008.743.779.774,1.122a26.9,26.9,0,0,0,2.977,10.367,27.406,27.406,0,0,0,19.98,14.771c.143.026.279.088.42.118.7.154,1.94.043,2.211.469C183.9,596.2,183.719,597.164,183.733,597.964Z" transform="translate(-151.846 -526.516)" fill="#614090" stroke="#fff" stroke-width="0.5"/>
    <path id="Path_11" data-name="Path 11" d="M233.59,584.391v6.985a51.626,51.626,0,0,1-5.159-1.169,24.373,24.373,0,0,1-9.1-5.35,25.25,25.25,0,0,1-5.772-7.942,22.938,22.938,0,0,1-2.094-7.5c-.084-.831.049-1.209,1-1.169,1.648.07-.015.038,4.951-.007.7-.023.95.211,1.034.9a16.841,16.841,0,0,0,7.052,11.757,18.137,18.137,0,0,0,3.818,2.128C230.652,583.592,232.084,583.92,233.59,584.391Z" transform="translate(-201.695 -525.98)" fill="#614090" stroke="#fff" stroke-width="0.5"/>
    <path id="Path_12" data-name="Path 12" d="M287.759,566.92V579.6c-5.637-.248-11.744-6.361-11.864-12.677Z" transform="translate(-255.864 -524.719)" fill="#614090" stroke="#fff" stroke-width="0.5"/>
  </g>
</svg>
