<svg xmlns="http://www.w3.org/2000/svg" width="41.869" height="46.786" viewBox="0 0 41.869 46.786">
  <g id="Group_45" data-name="Group 45" transform="translate(-359.497 -10.752)">
    <g id="Group_42" data-name="Group 42" transform="translate(360.825 17.7)">
      <rect id="Rectangle_5" data-name="Rectangle 5" width="28.17" height="16.445" transform="translate(5.786 0)" fill="rgba(255,255,255,0.64)"/>
      <path id="Rectangle_7" data-name="Rectangle 7" d="M0,0H18.577a0,0,0,0,1,0,0V20.1a0,0,0,0,1,0,0h0A18.577,18.577,0,0,1,0,1.523V0A0,0,0,0,1,0,0Z" transform="translate(0 19.338)" fill="rgba(255,255,255,0.64)"/>
      <rect id="Rectangle_6" data-name="Rectangle 6" width="11.42" height="13.095" rx="5.71" transform="translate(22.993 21.013)" fill="rgba(255,255,255,0.64)"/>
    </g>
    <g id="Group_41" data-name="Group 41" transform="translate(359.771 11)">
      <path id="Path_8" data-name="Path 8" d="M194.21,316.448a4.457,4.457,0,0,0-.051-.472c-.393,0-.75-.012-1.107,0-3.047.125-5.429-1.332-5.92-4.485a.867.867,0,0,0-.465-.561,33.957,33.957,0,0,0-15.184-2.485,39.876,39.876,0,0,0-10.93,2.482,1.013,1.013,0,0,0-.512.663,5.03,5.03,0,0,1-5.07,4.354c-.628.016-1.257,0-1.927,0v16.8c.176.015.287.033.4.033q20.053,0,40.106.019c.56,0,.676-.19.674-.7C194.206,326.884,194.213,321.666,194.21,316.448Zm-25.51,9.039a7.529,7.529,0,0,0-.008,1.1c-.582-.344-1.058-.606-1.517-.9-1.481-.942-2.946-1.908-4.438-2.834a1.083,1.083,0,0,1-.507-.927,1.865,1.865,0,0,1,1.176-2.068c1.6-.914,3.123-1.962,4.68-2.952.145-.092.3-.162.6-.32,0,.868.031,1.59-.021,2.305-.014.184-.258.4-.447.515-1.143.712-2.3,1.4-3.547,2.156a25.3,25.3,0,0,0,2.75,1.672A1.864,1.864,0,0,1,168.7,325.488Zm7.694-7.861c-1.438,3.785-2.885,7.567-4.309,11.357a.675.675,0,0,1-.786.528c-.557-.038-1.118-.009-1.8-.009.284-.8.517-1.5.776-2.181,1.417-3.732,2.852-7.458,4.249-11.2a.839.839,0,0,1,.978-.67c.511.044,1.028.01,1.685.01C176.9,316.256,176.654,316.944,176.394,317.626Zm7.495,5.3q-2.548,1.64-5.1,3.273c-.181.115-.383.2-.7.36,0-.843-.031-1.58.021-2.309.014-.185.261-.4.451-.518,1.009-.633,2.036-1.24,3.055-1.858.129-.079.251-.17.453-.307-1.215-.737-2.352-1.449-3.514-2.117a.835.835,0,0,1-.483-.863c.028-.618.008-1.239.008-2.05.95.6,1.74,1.1,2.528,1.595q1.625,1.03,3.248,2.059A1.725,1.725,0,0,1,183.889,322.923Z" transform="translate(-152.877 -308.353)" fill="#6e2381" stroke="#fff" stroke-width="0.5"/>
      <path id="Path_9" data-name="Path 9" d="M382.612,563.289c-2.166.019-4.333.008-6.5.008H363.142c-.02.284-.048.5-.048.719-.007,6.435,0,12.868-.029,19.3,0,.631.181.852.8.772.847-.109,1.7-.161,2.55-.263a16.619,16.619,0,0,0,9.237-4.038c4.765-4.216,6.8-9.774,7.588-15.905C383.307,563.384,383.063,563.286,382.612,563.289ZM372.3,578.148l-.231-.064v-4.408h-4.335l4.182-7.7.23.067v4.349H376.5Z" transform="translate(-341.913 -537.817)" fill="#3a4494" stroke="#fff" stroke-width="0.5"/>
      <path id="Path_10" data-name="Path 10" d="M171.474,586.719c.013.7,0,2.224,0,2.224s-2.212-.075-3.2-.231a17.878,17.878,0,0,1-7.311-2.775,18.445,18.445,0,0,1-5.848-6.613,27.836,27.836,0,0,1-2.983-8.915c-.083-.5-.238-1.125-.29-1.687,1.2,0,2.241-.021,3.273.027.125,0,.458.479.477.69a16.556,16.556,0,0,0,1.832,6.382,16.869,16.869,0,0,0,12.3,9.092c.088.016.172.054.259.073.431.095,1.194.027,1.361.288C171.579,585.635,171.465,586.227,171.474,586.719Z" transform="translate(-151.846 -542.74)" fill="#614090" stroke="#fff" stroke-width="0.5"/>
      <path id="Path_11" data-name="Path 11" d="M225.075,578.18v4.3a31.815,31.815,0,0,1-3.175-.719,15,15,0,0,1-5.6-3.293,15.542,15.542,0,0,1-3.553-4.889,14.118,14.118,0,0,1-1.289-4.618c-.052-.512.03-.744.618-.719,1.014.043-.009.023,3.047,0,.433-.014.585.13.636.555a10.366,10.366,0,0,0,4.341,7.237,11.162,11.162,0,0,0,2.35,1.31C223.267,577.688,224.148,577.89,225.075,578.18Z" transform="translate(-205.443 -542.226)" fill="#614090" stroke="#fff" stroke-width="0.5"/>
      <path id="Path_12" data-name="Path 12" d="M283.2,566.92v7.8c-3.47-.153-7.229-3.916-7.3-7.8Z" transform="translate(-263.565 -540.944)" fill="#614090" stroke="#fff" stroke-width="0.5"/>
    </g>
  </g>
</svg>
